<?xml version="1.0" encoding="utf-8"?>
<!-- Generator: Adobe Illustrator 17.1.0, SVG Export Plug-In . SVG Version: 6.00 Build 0)  -->
<!DOCTYPE svg PUBLIC "-//W3C//DTD SVG 1.1//EN" "http://www.w3.org/Graphics/SVG/1.1/DTD/svg11.dtd">
<svg version="1.1" id="Layer_1" xmlns="http://www.w3.org/2000/svg" xmlns:xlink="http://www.w3.org/1999/xlink" x="0px" y="0px"
	 viewBox="0 0 41 35" enable-background="new 0 0 41 35" xml:space="preserve">
<path fill="#DDE400" d="M35.614,33.75H5.386C2.964,33.75,1,31.786,1,29.364V5.636C1,3.214,2.964,1.25,5.386,1.25h30.229
	C38.036,1.25,40,3.214,40,5.636v23.729C40,31.786,38.036,33.75,35.614,33.75z"/>
<g>
	<path fill="#595900" d="M31.853,14.272v0.552l-10.859,6.787l-10.859-6.787v-0.552c0-0.753,0.615-1.357,1.357-1.357h6.787v0.562
		c0,0.848,0.509,1.622,1.305,1.962c0.275,0.127,0.583,0.19,0.901,0.19c0.498,0,0.997-0.17,1.378-0.478l2.885-2.237h5.748
		C31.248,12.915,31.853,13.52,31.853,14.272z M21.714,22.767l10.139-6.342v8.707c0,0.753-0.604,1.357-1.357,1.357H11.491
		c-0.753,0-1.357-0.604-1.357-1.357v-8.707l10.139,6.342c0.223,0.139,0.477,0.202,0.721,0.202
		C21.248,22.969,21.491,22.905,21.714,22.767z M14.206,10.2V8.843c0-0.753,0.604-1.357,1.357-1.357h4.072v-1.92
		c0-0.307,0.19-0.594,0.488-0.721c0.116-0.053,0.243-0.074,0.36-0.074c0.201,0,0.393,0.063,0.541,0.181l5.09,3.966
		c0.191,0.148,0.308,0.371,0.308,0.604s-0.116,0.456-0.308,0.604l-5.09,3.966c-0.148,0.117-0.34,0.181-0.541,0.181
		c-0.117,0-0.244-0.021-0.36-0.074c-0.298-0.127-0.488-0.414-0.488-0.721v-0.562v-1.357h-4.072
		C14.811,11.558,14.206,10.953,14.206,10.2z"/>
</g>
</svg>
