<?xml version="1.0" encoding="utf-8"?>
<!-- Generator: Adobe Illustrator 17.1.0, SVG Export Plug-In . SVG Version: 6.00 Build 0)  -->
<!DOCTYPE svg PUBLIC "-//W3C//DTD SVG 1.1//EN" "http://www.w3.org/Graphics/SVG/1.1/DTD/svg11.dtd">
<svg version="1.1" id="Layer_1" xmlns="http://www.w3.org/2000/svg" xmlns:xlink="http://www.w3.org/1999/xlink" x="0px" y="0px"
	 viewBox="0 0 39.375 39.375" enable-background="new 0 0 39.375 39.375" xml:space="preserve">
<g>
	<path fill="#DDE400" d="M7.383,20.38L0,15.766L19.726,0l19.649,15.766l-7.383,4.614v-5.614c0-1.365-1.096-2.461-2.461-2.461H9.844
		c-1.365,0-2.461,1.096-2.461,2.461V20.38z M20.995,30.166l18.38-11.497v18.246c0,1.365-1.096,2.461-2.461,2.461H2.461
		C1.096,39.375,0,38.279,0,36.914V18.668l18.38,11.497c0.404,0.25,0.865,0.366,1.308,0.366
		C20.149,30.531,20.591,30.416,20.995,30.166z M25.84,19.688H13.535c-0.673,0-1.23-0.558-1.23-1.23s0.558-1.23,1.23-1.23H25.84
		c0.673,0,1.23,0.558,1.23,1.23S26.513,19.688,25.84,19.688z M20.918,22.148c0.673,0,1.23,0.558,1.23,1.23s-0.558,1.23-1.23,1.23
		h-2.461c-0.673,0-1.23-0.558-1.23-1.23s0.558-1.23,1.23-1.23H20.918z"/>
</g>
</svg>
