<?xml version="1.0" encoding="utf-8"?>
<!-- Generator: Adobe Illustrator 18.0.0, SVG Export Plug-In . SVG Version: 6.00 Build 0)  -->
<!DOCTYPE svg PUBLIC "-//W3C//DTD SVG 1.1//EN" "http://www.w3.org/Graphics/SVG/1.1/DTD/svg11.dtd">
<svg version="1.1" id="Layer_1" xmlns="http://www.w3.org/2000/svg" xmlns:xlink="http://www.w3.org/1999/xlink" x="0px" y="0px"
	 viewBox="0 0 960 560" enable-background="new 0 0 960 560" xml:space="preserve">
<g>
	<path d="M305,289.8l-105-65.6L480.5,0L760,224.2l-105,65.6V210c0-19.4-15.6-35-35-35H340c-19.4,0-35,15.6-35,35V289.8z M498.6,429
		L760,265.5V525c0,19.4-15.6,35-35,35H235c-19.4,0-35-15.6-35-35V265.5L461.4,429c5.7,3.6,12.3,5.2,18.6,5.2
		C486.6,434.2,492.8,432.6,498.6,429z M567.5,280h-175c-9.6,0-17.5-7.9-17.5-17.5c0-9.6,7.9-17.5,17.5-17.5h175
		c9.6,0,17.5,7.9,17.5,17.5C585,272.1,577.1,280,567.5,280z M497.5,315c9.6,0,17.5,7.9,17.5,17.5s-7.9,17.5-17.5,17.5h-35
		c-9.6,0-17.5-7.9-17.5-17.5s7.9-17.5,17.5-17.5H497.5z"/>
</g>
</svg>
