<?xml version="1.0" encoding="utf-8"?>
<!-- Generator: Adobe Illustrator 17.1.0, SVG Export Plug-In . SVG Version: 6.00 Build 0)  -->
<!DOCTYPE svg PUBLIC "-//W3C//DTD SVG 1.1//EN" "http://www.w3.org/Graphics/SVG/1.1/DTD/svg11.dtd">
<svg version="1.1" id="Layer_1" xmlns="http://www.w3.org/2000/svg" xmlns:xlink="http://www.w3.org/1999/xlink" x="0px" y="0px"
	 viewBox="0 0 24 50" enable-background="new 0 0 24 50" xml:space="preserve">
<g>
	<line opacity="0.55" fill="#FFFFFF" stroke="#595900" stroke-miterlimit="10" x1="22.5" y1="50" x2="22.5" y2="0"/>
</g>
<g>
	<polygon fill="#595900" points="20,8.146 6.349,13.301 6.583,14.238 20,9.212 	"/>
	<polygon fill="#595900" points="20,5.811 5.695,11.505 5.946,12.436 20,6.885 	"/>
	<polygon fill="#595900" points="20,10.536 7.243,15.425 7.48,16.361 20,11.604 	"/>
	<polygon fill="#595900" points="20,12.909 8.006,17.502 8.244,18.438 20,13.978 	"/>
</g>
<g>
	<g>
		<polygon fill="#595900" points="20,27.817 20,26.744 20,25.608 20,24.535 10.88,28.182 11.878,31.031 		"/>
		<polygon fill="#595900" points="7.74,27.948 20,23.076 20,22.002 8.308,26.653 7.061,23.75 20,18.657 20,17.584 5.766,23.182 		
			"/>
		<polygon fill="#595900" points="20,41.391 10.81,45.066 7.061,35.75 20,30.657 20,29.584 5.88,35.182 10.128,46.361 20,42.465 		
			"/>
		<polygon fill="#595900" points="20,16.294 20,15.221 7.81,20.066 4.289,10.75 19.025,4.934 20,7.872 20,5.121 19.65,3.639 
			2.995,10.182 7.185,21.361 		"/>
	</g>
	<g>
		<polygon fill="#595900" points="20,31.742 8.379,36.343 8.626,37.276 20,32.814 		"/>
		<polygon fill="#595900" points="20,34.13 9.379,38.343 9.626,39.276 20,35.203 		"/>
		<polygon fill="#595900" points="20,36.518 10.379,40.343 10.626,41.276 20,37.591 		"/>
		<polygon fill="#595900" points="20,38.904 11.303,42.343 11.588,43.276 20,39.978 		"/>
	</g>
</g>
</svg>
