<?xml version="1.0" encoding="utf-8"?>
<!-- Generator: Adobe Illustrator 17.1.0, SVG Export Plug-In . SVG Version: 6.00 Build 0)  -->
<!DOCTYPE svg PUBLIC "-//W3C//DTD SVG 1.1//EN" "http://www.w3.org/Graphics/SVG/1.1/DTD/svg11.dtd">
<svg version="1.1" id="Layer_1" xmlns="http://www.w3.org/2000/svg" xmlns:xlink="http://www.w3.org/1999/xlink" x="0px" y="0px"
	 viewBox="0 0 39.375 39.375" enable-background="new 0 0 39.375 39.375" xml:space="preserve">
<g>
	<path fill="#DDE400" d="M39.375,12.305v4.922c0,6.768-5.537,12.305-12.305,12.305h-2.461l-12.305,9.844v-9.844
		C5.537,29.531,0,23.994,0,17.227v-4.922C0,5.537,5.537,0,12.305,0H27.07C33.838,0,39.375,5.537,39.375,12.305z M31.992,11.074
		c0-0.673-0.558-1.23-1.23-1.23H8.613c-0.673,0-1.23,0.558-1.23,1.23s0.558,1.23,1.23,1.23h22.148
		C31.435,12.305,31.992,11.747,31.992,11.074z M31.992,18.457c0-0.673-0.558-1.23-1.23-1.23H8.613c-0.673,0-1.23,0.558-1.23,1.23
		s0.558,1.23,1.23,1.23h22.148C31.435,19.688,31.992,19.13,31.992,18.457z"/>
</g>
</svg>
