<?xml version="1.0" encoding="utf-8"?>
<!-- Generator: Adobe Illustrator 17.1.0, SVG Export Plug-In . SVG Version: 6.00 Build 0)  -->
<!DOCTYPE svg PUBLIC "-//W3C//DTD SVG 1.1//EN" "http://www.w3.org/Graphics/SVG/1.1/DTD/svg11.dtd">
<svg version="1.1" id="Layer_1" xmlns="http://www.w3.org/2000/svg" xmlns:xlink="http://www.w3.org/1999/xlink" x="0px" y="0px"
	 viewBox="0 0 42 35" enable-background="new 0 0 42 35" xml:space="preserve">
<path fill="#DDE400" d="M36.114,33.75H5.886c-2.422,0-4.386-1.964-4.386-4.386V5.636c0-2.422,1.964-4.386,4.386-4.386h30.229
	c2.422,0,4.386,1.964,4.386,4.386v23.729C40.5,31.786,38.536,33.75,36.114,33.75z"/>
<g>
	<path fill="#595900" d="M14.755,12.492c-1.18,0-1.961-0.812-1.961-1.836c0-1.031,0.797-1.828,2.016-1.828
		c1.203,0,1.969,0.797,1.984,1.828c0,1.023-0.781,1.836-2.016,1.836H14.755z M16.458,14.156v10.336H13.13V14.156H16.458z
		 M21.794,18.492c0-1.336,0.852-2,1.852-2s1.812,0.664,1.812,2.336v5.664h3.336v-6c0-3-1.664-4.664-4-4.664
		c-1.336,0-2.336,0.758-3,1.758l-0.109-1.43h-3.281c0,0.352,0.055,2.336,0.055,2.336v8h3.336V18.492z"/>
</g>
</svg>
