<?xml version="1.0" encoding="utf-8"?>
<!-- Generator: Adobe Illustrator 18.0.0, SVG Export Plug-In . SVG Version: 6.00 Build 0)  -->
<!DOCTYPE svg PUBLIC "-//W3C//DTD SVG 1.1//EN" "http://www.w3.org/Graphics/SVG/1.1/DTD/svg11.dtd">
<svg version="1.1" id="Layer_1" xmlns="http://www.w3.org/2000/svg" xmlns:xlink="http://www.w3.org/1999/xlink" x="0px" y="0px"
	 viewBox="0 0 960 560" enable-background="new 0 0 960 560" xml:space="preserve">
<g>
	<path d="M760,175v70c0,96.3-78.7,175-175,175h-35L375,560V420c-96.2,0-175-78.8-175-175v-70C200,78.7,278.7,0,375,0h210
		C681.3,0,760,78.7,760,175z M655,157.5c0-9.6-7.9-17.5-17.5-17.5h-315c-9.6,0-17.5,7.9-17.5,17.5c0,9.6,7.9,17.5,17.5,17.5h315
		C647.1,175,655,167.1,655,157.5z M655,262.5c0-9.6-7.9-17.5-17.5-17.5h-315c-9.6,0-17.5,7.9-17.5,17.5c0,9.6,7.9,17.5,17.5,17.5
		h315C647.1,280,655,272.1,655,262.5z"/>
</g>
</svg>
