<?xml version="1.0" encoding="utf-8"?>
<!-- Generator: Adobe Illustrator 16.0.3, SVG Export Plug-In . SVG Version: 6.00 Build 0)  -->
<!DOCTYPE svg PUBLIC "-//W3C//DTD SVG 1.1//EN" "http://www.w3.org/Graphics/SVG/1.1/DTD/svg11.dtd">
<svg version="1.1" id="Layer_1" xmlns="http://www.w3.org/2000/svg" xmlns:xlink="http://www.w3.org/1999/xlink" x="0px" y="0px"
	 width="2000px" height="283px" viewBox="0 0 2000 283" enable-background="new 0 0 2000 283" xml:space="preserve">
<path fill="#65D68D" d="M811.018,208.054c0,0-11.465-134.022,95.549-134.022c107.013,0,99.369,130.24,99.369,130.24L811.018,208.054
	z"/>
<path fill="#65D68D" d="M1429.131,193.892c0,0-8.255-96.486,68.787-96.486c77.041,0,71.538,93.764,71.538,93.764L1429.131,193.892z"
	/>
<path fill="#65D68D" d="M1635.932,212.659c0,0-11.465-134.022,95.549-134.022s99.369,130.24,99.369,130.24L1635.932,212.659z"/>
<path fill="#65D68D" d="M1862.164,218.493c0,0-11.465-134.022,95.549-134.022s99.369,130.24,99.369,130.24L1862.164,218.493z"/>
<path opacity="0.6" fill="#8CE5C1" d="M1145.239,150.052c0,0-7.24-84.622,60.329-84.622c67.567,0,62.742,82.234,62.742,82.234
	L1145.239,150.052z"/>
<path fill="#65D68D" d="M1181.982,176.416c0,0-9.236-107.96,76.967-107.96c86.204,0,80.048,104.913,80.048,104.913L1181.982,176.416
	z"/>
<path fill="#49C44C" d="M1252.572,228.208c0,0-13.627-159.286,113.559-159.286s118.101,154.791,118.101,154.791L1252.572,228.208z"
	/>
<path fill="#49C44C" d="M1479.427,228.208c0,0-13.627-159.286,113.559-159.286s118.101,154.791,118.101,154.791L1479.427,228.208z"
	/>
<path fill="#49C44C" d="M1707.498,228.208c0,0-13.627-159.286,113.559-159.286s118.1,154.791,118.1,154.791L1707.498,228.208z"/>
<path fill="#49C44C" d="M1927.559,228.208c0,0-13.627-159.286,113.559-159.286s118.102,154.791,118.102,154.791L1927.559,228.208z"
	/>
<path opacity="0.6" fill="#8CE5C1" d="M1007.918,146.826c0,0-7.24-84.622,60.329-84.622s62.743,82.234,62.743,82.234
	L1007.918,146.826z"/>
<path fill="#65D68D" d="M967.212,150.654c0,0-6.649-77.725,55.411-77.725c62.059,0,57.627,75.53,57.627,75.53L967.212,150.654z"/>
<path fill="#65D68D" d="M1049.589,187.855c0,0-9.236-107.961,76.967-107.961c86.204,0,80.048,104.914,80.048,104.914
	L1049.589,187.855z"/>
<path fill="#65D68D" d="M157.923,190.399c0,0-8.254-96.486,68.787-96.486c77.042,0,71.539,93.764,71.539,93.764L157.923,190.399z"/>
<path fill="#65D68D" d="M364.725,209.167c0,0-11.466-134.022,95.548-134.022c107.014,0,99.37,130.24,99.37,130.24L364.725,209.167z"
	/>
<path fill="#65D68D" d="M590.957,215.001c0,0-11.465-134.022,95.549-134.022s99.369,130.24,99.369,130.24L590.957,215.001z"/>
<path fill="#49C44C" d="M1.57,211.2c0,0-13.627-159.286,113.558-159.286s118.101,154.791,118.101,154.791L1.57,211.2z"/>
<path fill="#49C44C" d="M228.425,211.2c0,0-13.627-159.286,113.559-159.286s118.101,154.791,118.101,154.791L228.425,211.2z"/>
<path fill="#49C44C" d="M456.496,211.2c0,0-13.627-159.286,113.559-159.286c127.186,0,118.1,154.791,118.1,154.791L456.496,211.2z"
	/>
<path fill="#49C44C" d="M676.557,211.2c0,0-13.627-159.286,113.559-159.286s118.102,154.791,118.102,154.791L676.557,211.2z"/>
<g>
	<polygon fill="#B8C8CC" points="546.073,21.391 545.484,17.471 546.158,15.241 554.368,17.705 554.237,22.808 552.956,23.965 
		554.094,25.586 553.664,28.685 	"/>
	<polygon fill="#5B412B" points="544.454,15.833 555.398,19.342 555.019,16.822 544.822,14.546 	"/>
	<polygon fill="#FBFCE3" points="524.946,73.9 511.711,43.933 531.315,14.109 558.943,37.739 554.739,69.428 	"/>
	<polyline fill="#B8C8CC" points="522.755,74.229 519.086,67.689 524.634,65.851 527.419,69.48 529.086,64.173 532.372,63.68 
		528.854,49.199 543.816,47.401 545.226,62.76 550.703,61.938 551.246,65.551 554.427,61.378 557.675,62.121 554.739,69.428 
		523.631,74.098 	"/>
	<path fill="#B8C8CC" d="M547.673,54.438l-0.384-10.021l3.839-2.033l4.754,1.079l-0.886,12.004c0,0-3.976,0.373-4.272,0.642
		C550.428,56.378,547.673,54.438,547.673,54.438z"/>
	<polygon fill="#B8C8CC" points="518.251,51.688 522.896,47.553 527.419,48.592 528.823,57.939 525.602,61.112 521.042,60.579 	"/>
	<polygon fill="#5B412B" points="535.607,72.3 530.837,50.471 542.229,48.76 544.881,70.908 	"/>
	<polygon fill="#5B412B" points="512.763,46.313 531.437,18.646 558.535,40.816 558.943,37.739 531.315,14.109 511.711,43.933 	"/>
	<polygon fill="#5B412B" points="520.768,34.452 546.802,31.217 545.429,28.792 520.912,32.099 	"/>
	<polygon fill="#5B412B" points="531.574,32 530.532,25.055 527.219,21.893 528.195,20.925 532.193,23.685 535.278,19.861 
		536.461,21.775 533.649,24.438 535.225,31.452 	"/>
	<polygon fill="none" stroke="#C6A36B" stroke-miterlimit="10" points="536.601,70.961 535.516,63.73 542.687,63.252 
		543.619,69.459 	"/>
	<polygon fill="none" stroke="#C6A36B" stroke-miterlimit="10" points="535.187,61.54 542.271,60.479 541.561,50.279 
		532.506,51.639 	"/>
	<polygon fill="#474F51" points="522.601,58.278 520.544,52.533 523.889,49.944 526.31,51.149 527.176,56.918 	"/>
	<polygon fill="#474F51" points="549.178,52.273 554.318,52.694 554.267,45.385 551.749,44.532 549.046,46.168 	"/>
	<path fill="#E2DF71" d="M531.315,14.109c0,0-14.234,24.313-19.604,29.823l-0.913,3.373l-0.788-0.281l0.354-1.62l-1.201,1.447
		l-1.271-1.002l1.398-1.629l-1.551,0.606l-0.661-0.423l1.862-1.027c0,0,14.795-29.772,19.735-31.187l-1.957-2.096l1.168-0.176
		l1.041,0.964l-0.164-1.095l1.168-0.176l0.311,1.074l0.639-1.216l0.804-0.121l0.125,2.072l1.336-2.291l1.315-0.198l-1.577,2.925
		c0,0,12.016,2.454,26.586,23.413l3.589,1.028l0.187,1.242l-3.473-0.749l2.87,1.213l-0.829,0.944l-0.89-0.462l0.453,0.527
		l-0.555,0.783l-1.877-2.059L531.315,14.109z"/>
</g>
<g>
	<line fill="none" stroke="#474F51" stroke-width="2" stroke-miterlimit="10" x1="518.886" y1="104.646" x2="520.49" y2="109.218"/>
	
		<line fill="none" stroke="#474F51" stroke-width="2" stroke-miterlimit="10" x1="523.767" y1="104.031" x2="523.271" y2="108.867"/>
	<path fill="#FBFCE3" d="M526.52,99.516c0.393,3.115-1.218,5.883-5.025,6.363c-3.807,0.479-6.054-1.803-6.446-4.917
		c-0.393-3.114,1.218-5.883,5.025-6.362C523.88,94.12,526.127,96.402,526.52,99.516z"/>
	<path fill="#474F51" d="M522.985,99.93c0.201,1.598-0.55,3.597-1.768,3.75c-1.218,0.152-2.441-1.597-2.643-3.194
		c-0.202-1.598,0.696-2.438,1.914-2.591C521.706,97.74,522.784,98.332,522.985,99.93z"/>
</g>
<g>
	<line fill="none" stroke="#474F51" stroke-width="2" stroke-miterlimit="10" x1="563.237" y1="89.193" x2="563.384" y2="94.035"/>
	<line fill="none" stroke="#474F51" stroke-width="2" stroke-miterlimit="10" x1="568.077" y1="90.083" x2="566.141" y2="94.543"/>
	<path fill="#FBFCE3" d="M572.065,86.612c-0.568,3.087-2.94,5.238-6.714,4.544c-3.773-0.694-5.226-3.549-4.657-6.636
		c0.568-3.088,2.94-5.238,6.714-4.544C571.182,80.67,572.633,83.525,572.065,86.612z"/>
</g>
<g>
	
		<line fill="none" stroke="#474F51" stroke-width="2" stroke-linecap="round" stroke-miterlimit="10" x1="506.33" y1="136.448" x2="508.877" y2="140.882"/>
	
		<line fill="none" stroke="#474F51" stroke-width="2" stroke-linecap="round" stroke-miterlimit="10" x1="508.171" y1="136.007" x2="510.718" y2="140.44"/>
	
		<line fill="none" stroke="#474F51" stroke-width="2" stroke-linecap="round" stroke-miterlimit="10" x1="499.804" y1="142.015" x2="501.729" y2="145.366"/>
	
		<line fill="none" stroke="#474F51" stroke-width="2" stroke-linecap="round" stroke-miterlimit="10" x1="497.455" y1="142.402" x2="499.742" y2="146.384"/>
	<path fill="#FBFCE3" d="M495.229,141.054c1.435,2.496,3.883,3.023,7.627,0.872s7.369-6.168,5.934-8.664
		c-1.434-2.496-7.056-1.958-10.801,0.193S493.794,138.557,495.229,141.054z"/>
	<path fill="#474F51" d="M493.935,140.523c0.481,1.387,1.768,2.896,2.608,2.605s0.915-2.274,0.434-3.661
		c-0.481-1.386-1.336-1.651-2.176-1.36C493.96,138.399,493.454,139.137,493.935,140.523z"/>
</g>
<rect x="-117.888" y="196.241" fill="#49C44C" width="2188.372" height="379.542"/>
<path fill="#AD8140" d="M2263.719,220.79c0,0-358.693-26.828-462.697,5.955c-66.369,20.919-36.404,40.161,16.896,41.603
	c0,0,65.982,2.911,65.982,14.891c0,12.67-67.256,15.272-125.896,15.272c-172.621,0-277.313,104.172-21.109,110.682
	c256.203,6.511,526.824,22.137,526.824,22.137V220.79z"/>
<ellipse fill="#8E6836" cx="1875.116" cy="247.664" rx="37.079" ry="10.921"/>
<ellipse fill="#8E6836" cx="1939.022" cy="236.324" rx="15.278" ry="5.233"/>
<ellipse fill="#8E6836" cx="1952.153" cy="259.138" rx="19.839" ry="6.703"/>
<g>
	<polygon fill="#357C57" points="1106.494,212.08 1151.306,212.08 1128.9,93.752 	"/>
	<line fill="#357C57" x1="1128.9" y1="212.08" x2="1128.9" y2="152.916"/>
	<line fill="#357C57" x1="1139.706" y1="187.338" x2="1128.9" y2="196.854"/>
	<line fill="#357C57" x1="1139.706" y1="175.941" x2="1128.9" y2="185.457"/>
	<line fill="#357C57" x1="1139.706" y1="164.452" x2="1128.9" y2="173.968"/>
	<line fill="#357C57" x1="1139.706" y1="197.889" x2="1128.9" y2="207.404"/>
	<line fill="#357C57" x1="1118.095" y1="187.338" x2="1128.9" y2="196.854"/>
	<line fill="#357C57" x1="1118.095" y1="175.941" x2="1128.9" y2="185.457"/>
	<line fill="#357C57" x1="1118.095" y1="164.452" x2="1128.9" y2="173.968"/>
	<line fill="#357C57" x1="1118.095" y1="197.889" x2="1128.9" y2="207.404"/>
</g>
<g>
	<polygon fill="#357C57" points="1054.964,216.756 1099.776,216.756 1077.371,98.428 	"/>
	<line fill="#357C57" x1="1077.371" y1="216.756" x2="1077.371" y2="157.592"/>
	<line fill="#357C57" x1="1088.177" y1="192.014" x2="1077.371" y2="201.53"/>
	<line fill="#357C57" x1="1088.177" y1="180.617" x2="1077.371" y2="190.133"/>
	<line fill="#357C57" x1="1088.177" y1="169.129" x2="1077.371" y2="178.645"/>
	<line fill="#357C57" x1="1088.177" y1="202.564" x2="1077.371" y2="212.081"/>
	<line fill="#357C57" x1="1066.565" y1="192.014" x2="1077.371" y2="201.53"/>
	<line fill="#357C57" x1="1066.565" y1="180.617" x2="1077.371" y2="190.133"/>
	<line fill="#357C57" x1="1066.565" y1="169.129" x2="1077.371" y2="178.645"/>
	<line fill="#357C57" x1="1066.565" y1="202.564" x2="1077.371" y2="212.081"/>
</g>
<g>
	<polygon fill="#357C57" points="1005.234,218.699 1050.047,218.699 1027.64,100.371 	"/>
	<line fill="#357C57" x1="1027.64" y1="218.699" x2="1027.64" y2="159.535"/>
	<line fill="#357C57" x1="1038.445" y1="193.957" x2="1027.64" y2="203.474"/>
	<line fill="#357C57" x1="1038.445" y1="182.56" x2="1027.64" y2="192.076"/>
	<line fill="#357C57" x1="1038.445" y1="171.071" x2="1027.64" y2="180.587"/>
	<line fill="#357C57" x1="1038.445" y1="204.508" x2="1027.64" y2="214.023"/>
	<line fill="#357C57" x1="1016.836" y1="193.957" x2="1027.64" y2="203.474"/>
	<line fill="#357C57" x1="1016.836" y1="182.56" x2="1027.64" y2="192.076"/>
	<line fill="#357C57" x1="1016.836" y1="171.071" x2="1027.64" y2="180.587"/>
	<line fill="#357C57" x1="1016.836" y1="204.508" x2="1027.64" y2="214.023"/>
</g>
<g>
	<polygon fill="#357C57" points="954.604,212.08 999.416,212.08 977.011,93.752 	"/>
	<line fill="#357C57" x1="977.011" y1="212.08" x2="977.011" y2="152.916"/>
	<line fill="#357C57" x1="987.816" y1="187.338" x2="977.011" y2="196.854"/>
	<line fill="#357C57" x1="987.816" y1="175.941" x2="977.011" y2="185.457"/>
	<line fill="#357C57" x1="987.816" y1="164.452" x2="977.011" y2="173.968"/>
	<line fill="#357C57" x1="987.816" y1="197.889" x2="977.011" y2="207.404"/>
	<line fill="#357C57" x1="966.205" y1="187.338" x2="977.011" y2="196.854"/>
	<line fill="#357C57" x1="966.205" y1="175.941" x2="977.011" y2="185.457"/>
	<line fill="#357C57" x1="966.205" y1="164.452" x2="977.011" y2="173.968"/>
	<line fill="#357C57" x1="966.205" y1="197.889" x2="977.011" y2="207.404"/>
</g>
<g>
	<polygon fill="#357C57" points="979.02,215.129 1023.832,215.129 1001.425,96.8 	"/>
	<line fill="#357C57" x1="1001.425" y1="215.129" x2="1001.425" y2="155.963"/>
	<line fill="#357C57" x1="1012.23" y1="190.386" x2="1001.425" y2="199.902"/>
	<line fill="#357C57" x1="1012.23" y1="178.988" x2="1001.425" y2="188.505"/>
	<line fill="#357C57" x1="1012.23" y1="167.5" x2="1001.425" y2="177.017"/>
	<line fill="#357C57" x1="1012.23" y1="200.937" x2="1001.425" y2="210.453"/>
	<line fill="#357C57" x1="990.621" y1="190.386" x2="1001.425" y2="199.902"/>
	<line fill="#357C57" x1="990.621" y1="178.988" x2="1001.425" y2="188.505"/>
	<line fill="#357C57" x1="990.621" y1="167.5" x2="1001.425" y2="177.017"/>
	<line fill="#357C57" x1="990.621" y1="200.937" x2="1001.425" y2="210.453"/>
</g>
<g>
	<polygon fill="#357C57" points="1029.648,216.207 1074.462,216.207 1052.057,97.879 	"/>
	<line fill="#357C57" x1="1052.057" y1="216.207" x2="1052.057" y2="157.042"/>
	<line fill="#357C57" x1="1062.86" y1="191.464" x2="1052.057" y2="200.98"/>
	<line fill="#357C57" x1="1062.86" y1="180.068" x2="1052.057" y2="189.583"/>
	<line fill="#357C57" x1="1062.86" y1="168.578" x2="1052.057" y2="178.095"/>
	<line fill="#357C57" x1="1062.86" y1="202.015" x2="1052.057" y2="211.531"/>
	<line fill="#357C57" x1="1041.251" y1="191.464" x2="1052.057" y2="200.98"/>
	<line fill="#357C57" x1="1041.251" y1="180.068" x2="1052.057" y2="189.583"/>
	<line fill="#357C57" x1="1041.251" y1="168.578" x2="1052.057" y2="178.095"/>
	<line fill="#357C57" x1="1041.251" y1="202.015" x2="1052.057" y2="211.531"/>
</g>
<g>
	<polygon fill="#357C57" points="1080.278,214.642 1125.093,214.642 1102.686,96.313 	"/>
	<line fill="#357C57" x1="1102.686" y1="214.642" x2="1102.686" y2="155.477"/>
	<line fill="#357C57" x1="1113.491" y1="189.899" x2="1102.686" y2="199.415"/>
	<line fill="#357C57" x1="1113.491" y1="178.502" x2="1102.686" y2="188.019"/>
	<line fill="#357C57" x1="1113.491" y1="167.014" x2="1102.686" y2="176.529"/>
	<line fill="#357C57" x1="1113.491" y1="200.45" x2="1102.686" y2="209.966"/>
	<line fill="#357C57" x1="1091.88" y1="189.899" x2="1102.686" y2="199.415"/>
	<line fill="#357C57" x1="1091.88" y1="178.502" x2="1102.686" y2="188.019"/>
	<line fill="#357C57" x1="1091.88" y1="167.014" x2="1102.686" y2="176.529"/>
	<line fill="#357C57" x1="1091.88" y1="200.45" x2="1102.686" y2="209.966"/>
</g>
<g>
	<polygon fill="#357C57" points="1130.909,216.756 1175.723,216.756 1153.315,98.427 	"/>
	<line fill="#357C57" x1="1153.315" y1="216.756" x2="1153.315" y2="157.591"/>
	<line fill="#357C57" x1="1164.121" y1="192.014" x2="1153.315" y2="201.528"/>
	<line fill="#357C57" x1="1164.121" y1="180.616" x2="1153.315" y2="190.133"/>
	<line fill="#357C57" x1="1164.121" y1="169.127" x2="1153.315" y2="178.644"/>
	<line fill="#357C57" x1="1164.121" y1="202.564" x2="1153.315" y2="212.079"/>
	<line fill="#357C57" x1="1142.511" y1="192.014" x2="1153.315" y2="201.528"/>
	<line fill="#357C57" x1="1142.511" y1="180.616" x2="1153.315" y2="190.133"/>
	<line fill="#357C57" x1="1142.511" y1="169.127" x2="1153.315" y2="178.644"/>
	<line fill="#357C57" x1="1142.511" y1="202.564" x2="1153.315" y2="212.079"/>
</g>
<g>
	<polygon fill="#357C57" points="925.354,216.756 970.166,216.756 947.76,98.428 	"/>
	<line fill="#357C57" x1="947.76" y1="216.756" x2="947.76" y2="157.592"/>
	<line fill="#357C57" x1="958.564" y1="192.014" x2="947.76" y2="201.529"/>
	<line fill="#357C57" x1="958.564" y1="180.617" x2="947.76" y2="190.133"/>
	<line fill="#357C57" x1="958.564" y1="169.128" x2="947.76" y2="178.645"/>
	<line fill="#357C57" x1="958.564" y1="202.564" x2="947.76" y2="212.08"/>
	<line fill="#357C57" x1="936.955" y1="192.014" x2="947.76" y2="201.529"/>
	<line fill="#357C57" x1="936.955" y1="180.617" x2="947.76" y2="190.133"/>
	<line fill="#357C57" x1="936.955" y1="169.128" x2="947.76" y2="178.645"/>
	<line fill="#357C57" x1="936.955" y1="202.564" x2="947.76" y2="212.08"/>
</g>
<g>
	<polygon fill="#357C57" points="1226.065,210.065 1270.879,210.065 1248.471,91.736 	"/>
	<line fill="#357C57" x1="1248.471" y1="210.065" x2="1248.471" y2="150.9"/>
	<line fill="#357C57" x1="1259.276" y1="185.323" x2="1248.471" y2="194.84"/>
	<line fill="#357C57" x1="1259.276" y1="173.926" x2="1248.471" y2="183.442"/>
	<line fill="#357C57" x1="1259.276" y1="162.438" x2="1248.471" y2="171.954"/>
	<line fill="#357C57" x1="1259.276" y1="195.874" x2="1248.471" y2="205.391"/>
	<line fill="#357C57" x1="1237.666" y1="185.323" x2="1248.471" y2="194.84"/>
	<line fill="#357C57" x1="1237.666" y1="173.926" x2="1248.471" y2="183.442"/>
	<line fill="#357C57" x1="1237.666" y1="162.438" x2="1248.471" y2="171.954"/>
	<line fill="#357C57" x1="1237.666" y1="195.874" x2="1248.471" y2="205.391"/>
</g>
<g>
	<polygon fill="#357C57" points="1257.484,210.065 1302.298,210.065 1279.891,91.736 	"/>
	<line fill="#357C57" x1="1279.891" y1="210.065" x2="1279.891" y2="150.901"/>
	<line fill="#357C57" x1="1290.696" y1="185.323" x2="1279.891" y2="194.84"/>
	<line fill="#357C57" x1="1290.696" y1="173.926" x2="1279.891" y2="183.442"/>
	<line fill="#357C57" x1="1290.696" y1="162.438" x2="1279.891" y2="171.954"/>
	<line fill="#357C57" x1="1290.696" y1="195.874" x2="1279.891" y2="205.391"/>
	<line fill="#357C57" x1="1269.086" y1="185.323" x2="1279.891" y2="194.84"/>
	<line fill="#357C57" x1="1269.086" y1="173.926" x2="1279.891" y2="183.442"/>
	<line fill="#357C57" x1="1269.086" y1="162.438" x2="1279.891" y2="171.954"/>
	<line fill="#357C57" x1="1269.086" y1="195.874" x2="1279.891" y2="205.391"/>
</g>
<g>
	<polygon fill="#357C57" points="1206.854,214.641 1251.668,214.641 1229.261,96.313 	"/>
	<line fill="#357C57" x1="1229.261" y1="214.641" x2="1229.261" y2="155.477"/>
	<line fill="#357C57" x1="1240.066" y1="189.898" x2="1229.261" y2="199.415"/>
	<line fill="#357C57" x1="1240.066" y1="178.502" x2="1229.261" y2="188.018"/>
	<line fill="#357C57" x1="1240.066" y1="167.014" x2="1229.261" y2="176.529"/>
	<line fill="#357C57" x1="1240.066" y1="200.449" x2="1229.261" y2="209.966"/>
	<line fill="#357C57" x1="1218.455" y1="189.898" x2="1229.261" y2="199.415"/>
	<line fill="#357C57" x1="1218.455" y1="178.502" x2="1229.261" y2="188.018"/>
	<line fill="#357C57" x1="1218.455" y1="167.014" x2="1229.261" y2="176.529"/>
	<line fill="#357C57" x1="1218.455" y1="200.449" x2="1229.261" y2="209.966"/>
</g>
<g>
	<polygon fill="#357C57" points="1156.225,210.065 1201.037,210.065 1178.63,91.736 	"/>
	<line fill="#357C57" x1="1178.63" y1="210.065" x2="1178.63" y2="150.9"/>
	<line fill="#357C57" x1="1189.436" y1="185.322" x2="1178.63" y2="194.839"/>
	<line fill="#357C57" x1="1189.436" y1="173.926" x2="1178.63" y2="183.442"/>
	<line fill="#357C57" x1="1189.436" y1="162.438" x2="1178.63" y2="171.953"/>
	<line fill="#357C57" x1="1189.436" y1="195.873" x2="1178.63" y2="205.39"/>
	<line fill="#357C57" x1="1167.826" y1="185.322" x2="1178.63" y2="194.839"/>
	<line fill="#357C57" x1="1167.826" y1="173.926" x2="1178.63" y2="183.442"/>
	<line fill="#357C57" x1="1167.826" y1="162.438" x2="1178.63" y2="171.953"/>
	<line fill="#357C57" x1="1167.826" y1="195.873" x2="1178.63" y2="205.39"/>
</g>
<g>
	<polygon fill="#357C57" points="1182.438,215.129 1227.252,215.129 1204.845,96.8 	"/>
	<line fill="#357C57" x1="1204.845" y1="215.129" x2="1204.845" y2="155.963"/>
	<line fill="#357C57" x1="1215.65" y1="190.386" x2="1204.845" y2="199.902"/>
	<line fill="#357C57" x1="1215.65" y1="178.988" x2="1204.845" y2="188.505"/>
	<line fill="#357C57" x1="1215.65" y1="167.5" x2="1204.845" y2="177.017"/>
	<line fill="#357C57" x1="1215.65" y1="200.937" x2="1204.845" y2="210.453"/>
	<line fill="#357C57" x1="1194.041" y1="190.386" x2="1204.845" y2="199.902"/>
	<line fill="#357C57" x1="1194.041" y1="178.988" x2="1204.845" y2="188.505"/>
	<line fill="#357C57" x1="1194.041" y1="167.5" x2="1204.845" y2="177.017"/>
	<line fill="#357C57" x1="1194.041" y1="200.937" x2="1204.845" y2="210.453"/>
</g>
<g>
	<polygon fill="#1E541E" points="938.588,224.436 989.218,224.436 963.903,90.748 	"/>
	<line fill="#1E541E" x1="963.903" y1="224.436" x2="963.903" y2="157.592"/>
	<line fill="#1E541E" x1="976.11" y1="196.481" x2="963.903" y2="207.232"/>
	<line fill="#1E541E" x1="976.11" y1="183.605" x2="963.903" y2="194.356"/>
	<line fill="#1E541E" x1="976.11" y1="170.625" x2="963.903" y2="181.377"/>
	<line fill="#1E541E" x1="976.11" y1="208.401" x2="963.903" y2="219.153"/>
	<line fill="#1E541E" x1="951.695" y1="196.481" x2="963.903" y2="207.232"/>
	<line fill="#1E541E" x1="951.695" y1="183.605" x2="963.903" y2="194.356"/>
	<line fill="#1E541E" x1="951.695" y1="170.625" x2="963.903" y2="181.377"/>
	<line fill="#1E541E" x1="951.695" y1="208.401" x2="963.903" y2="219.153"/>
</g>
<g>
	<polygon fill="#1E541E" points="989.218,224.436 1039.848,224.436 1014.532,90.748 	"/>
	<line fill="#1E541E" x1="1014.532" y1="224.436" x2="1014.532" y2="157.592"/>
	<line fill="#1E541E" x1="1026.74" y1="196.481" x2="1014.532" y2="207.232"/>
	<line fill="#1E541E" x1="1026.74" y1="183.605" x2="1014.532" y2="194.356"/>
	<line fill="#1E541E" x1="1026.74" y1="170.625" x2="1014.532" y2="181.377"/>
	<line fill="#1E541E" x1="1026.74" y1="208.401" x2="1014.532" y2="219.153"/>
	<line fill="#1E541E" x1="1002.325" y1="196.481" x2="1014.532" y2="207.232"/>
	<line fill="#1E541E" x1="1002.325" y1="183.605" x2="1014.532" y2="194.356"/>
	<line fill="#1E541E" x1="1002.325" y1="170.625" x2="1014.532" y2="181.377"/>
	<line fill="#1E541E" x1="1002.325" y1="208.401" x2="1014.532" y2="219.153"/>
</g>
<g>
	<polygon fill="#1E541E" points="1039.848,224.436 1090.479,224.436 1065.164,90.748 	"/>
	<line fill="#1E541E" x1="1065.164" y1="224.436" x2="1065.164" y2="157.592"/>
	<line fill="#1E541E" x1="1077.371" y1="196.481" x2="1065.164" y2="207.232"/>
	<line fill="#1E541E" x1="1077.371" y1="183.605" x2="1065.164" y2="194.356"/>
	<line fill="#1E541E" x1="1077.371" y1="170.625" x2="1065.164" y2="181.377"/>
	<line fill="#1E541E" x1="1077.371" y1="208.401" x2="1065.164" y2="219.153"/>
	<line fill="#1E541E" x1="1052.955" y1="196.481" x2="1065.164" y2="207.232"/>
	<line fill="#1E541E" x1="1052.955" y1="183.605" x2="1065.164" y2="194.356"/>
	<line fill="#1E541E" x1="1052.955" y1="170.625" x2="1065.164" y2="181.377"/>
	<line fill="#1E541E" x1="1052.955" y1="208.401" x2="1065.164" y2="219.153"/>
</g>
<g>
	<polygon fill="#1E541E" points="1090.479,224.436 1141.107,224.436 1115.793,90.748 	"/>
	<line fill="#1E541E" x1="1115.793" y1="224.436" x2="1115.793" y2="157.592"/>
	<line fill="#1E541E" x1="1128" y1="196.481" x2="1115.793" y2="207.232"/>
	<line fill="#1E541E" x1="1128" y1="183.605" x2="1115.793" y2="194.356"/>
	<line fill="#1E541E" x1="1128" y1="170.625" x2="1115.793" y2="181.377"/>
	<line fill="#1E541E" x1="1128" y1="208.401" x2="1115.793" y2="219.153"/>
	<line fill="#1E541E" x1="1103.586" y1="196.481" x2="1115.793" y2="207.232"/>
	<line fill="#1E541E" x1="1103.586" y1="183.605" x2="1115.793" y2="194.356"/>
	<line fill="#1E541E" x1="1103.586" y1="170.625" x2="1115.793" y2="181.377"/>
	<line fill="#1E541E" x1="1103.586" y1="208.401" x2="1115.793" y2="219.153"/>
</g>
<g>
	<polygon fill="#1E541E" points="887.957,224.436 938.588,224.436 913.273,90.748 	"/>
	<line fill="#1E541E" x1="913.273" y1="224.436" x2="913.273" y2="157.592"/>
	<line fill="#1E541E" x1="925.48" y1="196.481" x2="913.273" y2="207.232"/>
	<line fill="#1E541E" x1="925.48" y1="183.605" x2="913.273" y2="194.356"/>
	<line fill="#1E541E" x1="925.48" y1="170.625" x2="913.273" y2="181.377"/>
	<line fill="#1E541E" x1="925.48" y1="208.401" x2="913.273" y2="219.153"/>
	<line fill="#1E541E" x1="901.064" y1="196.481" x2="913.273" y2="207.232"/>
	<line fill="#1E541E" x1="901.064" y1="183.605" x2="913.273" y2="194.356"/>
	<line fill="#1E541E" x1="901.064" y1="170.625" x2="913.273" y2="181.377"/>
	<line fill="#1E541E" x1="901.064" y1="208.401" x2="913.273" y2="219.153"/>
</g>
<g>
	<polygon fill="#1E541E" points="1191.737,224.436 1242.368,224.436 1217.054,90.748 	"/>
	<line fill="#1E541E" x1="1217.054" y1="224.436" x2="1217.054" y2="157.592"/>
	<line fill="#1E541E" x1="1229.261" y1="196.481" x2="1217.054" y2="207.232"/>
	<line fill="#1E541E" x1="1229.261" y1="183.605" x2="1217.054" y2="194.356"/>
	<line fill="#1E541E" x1="1229.261" y1="170.625" x2="1217.054" y2="181.377"/>
	<line fill="#1E541E" x1="1229.261" y1="208.401" x2="1217.054" y2="219.153"/>
	<line fill="#1E541E" x1="1204.845" y1="196.481" x2="1217.054" y2="207.232"/>
	<line fill="#1E541E" x1="1204.845" y1="183.605" x2="1217.054" y2="194.356"/>
	<line fill="#1E541E" x1="1204.845" y1="170.625" x2="1217.054" y2="181.377"/>
	<line fill="#1E541E" x1="1204.845" y1="208.401" x2="1217.054" y2="219.153"/>
</g>
<g>
	<polygon fill="#1E541E" points="1242.368,223.887 1292.998,223.887 1267.683,90.198 	"/>
	<line fill="#1E541E" x1="1267.683" y1="223.887" x2="1267.683" y2="157.042"/>
	<line fill="#1E541E" x1="1279.891" y1="195.932" x2="1267.683" y2="206.684"/>
	<line fill="#1E541E" x1="1279.891" y1="183.057" x2="1267.683" y2="193.808"/>
	<line fill="#1E541E" x1="1279.891" y1="170.076" x2="1267.683" y2="180.827"/>
	<line fill="#1E541E" x1="1279.891" y1="207.853" x2="1267.683" y2="218.604"/>
	<line fill="#1E541E" x1="1255.476" y1="195.932" x2="1267.683" y2="206.684"/>
	<line fill="#1E541E" x1="1255.476" y1="183.057" x2="1267.683" y2="193.808"/>
	<line fill="#1E541E" x1="1255.476" y1="170.076" x2="1267.683" y2="180.827"/>
	<line fill="#1E541E" x1="1255.476" y1="207.853" x2="1267.683" y2="218.604"/>
</g>
<g>
	<polygon fill="#1E541E" points="1292.998,223.887 1343.629,223.887 1318.313,90.198 	"/>
	<line fill="#1E541E" x1="1318.313" y1="223.887" x2="1318.313" y2="157.042"/>
	<line fill="#1E541E" x1="1330.52" y1="195.932" x2="1318.313" y2="206.684"/>
	<line fill="#1E541E" x1="1330.52" y1="183.057" x2="1318.313" y2="193.808"/>
	<line fill="#1E541E" x1="1330.52" y1="170.076" x2="1318.313" y2="180.827"/>
	<line fill="#1E541E" x1="1330.52" y1="207.853" x2="1318.313" y2="218.604"/>
	<line fill="#1E541E" x1="1306.105" y1="195.932" x2="1318.313" y2="206.684"/>
	<line fill="#1E541E" x1="1306.105" y1="183.057" x2="1318.313" y2="193.808"/>
	<line fill="#1E541E" x1="1306.105" y1="170.076" x2="1318.313" y2="180.827"/>
	<line fill="#1E541E" x1="1306.105" y1="207.853" x2="1318.313" y2="218.604"/>
</g>
<g>
	<polygon fill="#1E541E" points="1141.107,224.436 1191.737,224.436 1166.423,90.748 	"/>
	<line fill="#1E541E" x1="1166.423" y1="224.436" x2="1166.423" y2="157.592"/>
	<line fill="#1E541E" x1="1178.63" y1="196.481" x2="1166.423" y2="207.232"/>
	<line fill="#1E541E" x1="1178.63" y1="183.605" x2="1166.423" y2="194.356"/>
	<line fill="#1E541E" x1="1178.63" y1="170.625" x2="1166.423" y2="181.377"/>
	<line fill="#1E541E" x1="1178.63" y1="208.401" x2="1166.423" y2="219.153"/>
	<line fill="#1E541E" x1="1154.215" y1="196.481" x2="1166.423" y2="207.232"/>
	<line fill="#1E541E" x1="1154.215" y1="183.605" x2="1166.423" y2="194.356"/>
	<line fill="#1E541E" x1="1154.215" y1="170.625" x2="1166.423" y2="181.377"/>
	<line fill="#1E541E" x1="1154.215" y1="208.401" x2="1166.423" y2="219.153"/>
</g>
<g>
	<polygon fill="#267026" points="913.273,234.925 963.903,234.925 938.588,101.236 	"/>
	
		<line fill="none" stroke="#49C44C" stroke-width="3" stroke-miterlimit="10" x1="938.588" y1="234.925" x2="938.588" y2="168.081"/>
	
		<line fill="none" stroke="#49C44C" stroke-width="2" stroke-miterlimit="10" x1="950.796" y1="206.971" x2="938.588" y2="217.723"/>
	
		<line fill="none" stroke="#49C44C" stroke-width="2" stroke-miterlimit="10" x1="950.796" y1="194.095" x2="938.588" y2="204.846"/>
	
		<line fill="none" stroke="#49C44C" stroke-width="2" stroke-miterlimit="10" x1="950.796" y1="181.114" x2="938.588" y2="191.866"/>
	
		<line fill="none" stroke="#49C44C" stroke-width="2" stroke-miterlimit="10" x1="950.796" y1="218.891" x2="938.588" y2="229.643"/>
	
		<line fill="none" stroke="#49C44C" stroke-width="2" stroke-miterlimit="10" x1="926.381" y1="206.971" x2="938.588" y2="217.723"/>
	
		<line fill="none" stroke="#49C44C" stroke-width="2" stroke-miterlimit="10" x1="926.381" y1="194.095" x2="938.588" y2="204.846"/>
	
		<line fill="none" stroke="#49C44C" stroke-width="2" stroke-miterlimit="10" x1="926.381" y1="181.114" x2="938.588" y2="191.866"/>
	
		<line fill="none" stroke="#49C44C" stroke-width="2" stroke-miterlimit="10" x1="926.381" y1="218.891" x2="938.588" y2="229.643"/>
</g>
<g>
	<polygon fill="#267026" points="963.903,224.436 1014.532,224.436 989.218,90.748 	"/>
	
		<line fill="none" stroke="#49C44C" stroke-width="3" stroke-miterlimit="10" x1="989.218" y1="224.436" x2="989.218" y2="157.592"/>
	
		<line fill="none" stroke="#49C44C" stroke-width="2" stroke-miterlimit="10" x1="1001.425" y1="196.481" x2="989.218" y2="207.232"/>
	
		<line fill="none" stroke="#49C44C" stroke-width="2" stroke-miterlimit="10" x1="1001.425" y1="183.605" x2="989.218" y2="194.356"/>
	
		<line fill="none" stroke="#49C44C" stroke-width="2" stroke-miterlimit="10" x1="1001.425" y1="170.625" x2="989.218" y2="181.377"/>
	
		<line fill="none" stroke="#49C44C" stroke-width="2" stroke-miterlimit="10" x1="1001.425" y1="208.401" x2="989.218" y2="219.153"/>
	
		<line fill="none" stroke="#49C44C" stroke-width="2" stroke-miterlimit="10" x1="977.011" y1="196.481" x2="989.218" y2="207.232"/>
	
		<line fill="none" stroke="#49C44C" stroke-width="2" stroke-miterlimit="10" x1="977.011" y1="183.605" x2="989.218" y2="194.356"/>
	
		<line fill="none" stroke="#49C44C" stroke-width="2" stroke-miterlimit="10" x1="977.011" y1="170.625" x2="989.218" y2="181.377"/>
	
		<line fill="none" stroke="#49C44C" stroke-width="2" stroke-miterlimit="10" x1="977.011" y1="208.401" x2="989.218" y2="219.153"/>
</g>
<g>
	<polygon fill="#267026" points="1014.532,234.4 1065.164,234.4 1039.848,100.713 	"/>
	
		<line fill="none" stroke="#49C44C" stroke-width="3" stroke-miterlimit="10" x1="1039.848" y1="234.4" x2="1039.848" y2="167.556"/>
	
		<line fill="none" stroke="#49C44C" stroke-width="2" stroke-miterlimit="10" x1="1052.057" y1="206.446" x2="1039.848" y2="217.198"/>
	
		<line fill="none" stroke="#49C44C" stroke-width="2" stroke-miterlimit="10" x1="1052.057" y1="193.57" x2="1039.848" y2="204.322"/>
	
		<line fill="none" stroke="#49C44C" stroke-width="2" stroke-miterlimit="10" x1="1052.057" y1="180.59" x2="1039.848" y2="191.342"/>
	
		<line fill="none" stroke="#49C44C" stroke-width="2" stroke-miterlimit="10" x1="1052.057" y1="218.366" x2="1039.848" y2="229.117"/>
	
		<line fill="none" stroke="#49C44C" stroke-width="2" stroke-miterlimit="10" x1="1027.64" y1="206.446" x2="1039.848" y2="217.198"/>
	
		<line fill="none" stroke="#49C44C" stroke-width="2" stroke-miterlimit="10" x1="1027.64" y1="193.57" x2="1039.848" y2="204.322"/>
	
		<line fill="none" stroke="#49C44C" stroke-width="2" stroke-miterlimit="10" x1="1027.64" y1="180.59" x2="1039.848" y2="191.342"/>
	
		<line fill="none" stroke="#49C44C" stroke-width="2" stroke-miterlimit="10" x1="1027.64" y1="218.366" x2="1039.848" y2="229.117"/>
</g>
<g>
	<polygon fill="#267026" points="1065.164,224.436 1115.793,224.436 1090.479,90.748 	"/>
	
		<line fill="none" stroke="#49C44C" stroke-width="3" stroke-miterlimit="10" x1="1090.479" y1="224.436" x2="1090.479" y2="157.592"/>
	
		<line fill="none" stroke="#49C44C" stroke-width="2" stroke-miterlimit="10" x1="1102.686" y1="196.481" x2="1090.479" y2="207.232"/>
	
		<line fill="none" stroke="#49C44C" stroke-width="2" stroke-miterlimit="10" x1="1102.686" y1="183.605" x2="1090.479" y2="194.356"/>
	
		<line fill="none" stroke="#49C44C" stroke-width="2" stroke-miterlimit="10" x1="1102.686" y1="170.625" x2="1090.479" y2="181.377"/>
	
		<line fill="none" stroke="#49C44C" stroke-width="2" stroke-miterlimit="10" x1="1102.686" y1="208.401" x2="1090.479" y2="219.153"/>
	
		<line fill="none" stroke="#49C44C" stroke-width="2" stroke-miterlimit="10" x1="1078.271" y1="196.481" x2="1090.479" y2="207.232"/>
	
		<line fill="none" stroke="#49C44C" stroke-width="2" stroke-miterlimit="10" x1="1078.271" y1="183.605" x2="1090.479" y2="194.356"/>
	
		<line fill="none" stroke="#49C44C" stroke-width="2" stroke-miterlimit="10" x1="1078.271" y1="170.625" x2="1090.479" y2="181.377"/>
	
		<line fill="none" stroke="#49C44C" stroke-width="2" stroke-miterlimit="10" x1="1078.271" y1="208.401" x2="1090.479" y2="219.153"/>
</g>
<g>
	<polygon fill="#267026" points="862.643,224.436 913.273,224.436 887.957,90.748 	"/>
	
		<line fill="none" stroke="#49C44C" stroke-width="3" stroke-miterlimit="10" x1="887.957" y1="224.436" x2="887.957" y2="157.592"/>
	
		<line fill="none" stroke="#49C44C" stroke-width="2" stroke-miterlimit="10" x1="900.165" y1="196.481" x2="887.957" y2="207.232"/>
	
		<line fill="none" stroke="#49C44C" stroke-width="2" stroke-miterlimit="10" x1="900.165" y1="183.605" x2="887.957" y2="194.356"/>
	
		<line fill="none" stroke="#49C44C" stroke-width="2" stroke-miterlimit="10" x1="900.165" y1="170.625" x2="887.957" y2="181.377"/>
	
		<line fill="none" stroke="#49C44C" stroke-width="2" stroke-miterlimit="10" x1="900.165" y1="208.401" x2="887.957" y2="219.153"/>
	<line fill="none" stroke="#49C44C" stroke-width="2" stroke-miterlimit="10" x1="875.75" y1="196.481" x2="887.957" y2="207.232"/>
	<line fill="none" stroke="#49C44C" stroke-width="2" stroke-miterlimit="10" x1="875.75" y1="183.605" x2="887.957" y2="194.356"/>
	<line fill="none" stroke="#49C44C" stroke-width="2" stroke-miterlimit="10" x1="875.75" y1="170.625" x2="887.957" y2="181.377"/>
	<line fill="none" stroke="#49C44C" stroke-width="2" stroke-miterlimit="10" x1="875.75" y1="208.401" x2="887.957" y2="219.153"/>
</g>
<g>
	<polygon fill="#267026" points="1166.423,224.436 1217.054,224.436 1191.737,90.748 	"/>
	
		<line fill="none" stroke="#49C44C" stroke-width="3" stroke-miterlimit="10" x1="1191.737" y1="224.436" x2="1191.737" y2="157.592"/>
	
		<line fill="none" stroke="#49C44C" stroke-width="2" stroke-miterlimit="10" x1="1203.946" y1="196.481" x2="1191.737" y2="207.232"/>
	
		<line fill="none" stroke="#49C44C" stroke-width="2" stroke-miterlimit="10" x1="1203.946" y1="183.605" x2="1191.737" y2="194.356"/>
	
		<line fill="none" stroke="#49C44C" stroke-width="2" stroke-miterlimit="10" x1="1203.946" y1="170.625" x2="1191.737" y2="181.377"/>
	
		<line fill="none" stroke="#49C44C" stroke-width="2" stroke-miterlimit="10" x1="1203.946" y1="208.401" x2="1191.737" y2="219.153"/>
	
		<line fill="none" stroke="#49C44C" stroke-width="2" stroke-miterlimit="10" x1="1179.529" y1="196.481" x2="1191.737" y2="207.232"/>
	
		<line fill="none" stroke="#49C44C" stroke-width="2" stroke-miterlimit="10" x1="1179.529" y1="183.605" x2="1191.737" y2="194.356"/>
	
		<line fill="none" stroke="#49C44C" stroke-width="2" stroke-miterlimit="10" x1="1179.529" y1="170.625" x2="1191.737" y2="181.377"/>
	
		<line fill="none" stroke="#49C44C" stroke-width="2" stroke-miterlimit="10" x1="1179.529" y1="208.401" x2="1191.737" y2="219.153"/>
</g>
<g>
	<polygon fill="#267026" points="1217.054,234.4 1267.683,234.4 1242.368,100.713 	"/>
	
		<line fill="none" stroke="#49C44C" stroke-width="3" stroke-miterlimit="10" x1="1242.368" y1="234.4" x2="1242.368" y2="167.556"/>
	
		<line fill="none" stroke="#49C44C" stroke-width="2" stroke-miterlimit="10" x1="1254.575" y1="206.446" x2="1242.368" y2="217.198"/>
	
		<line fill="none" stroke="#49C44C" stroke-width="2" stroke-miterlimit="10" x1="1254.575" y1="193.57" x2="1242.368" y2="204.322"/>
	
		<line fill="none" stroke="#49C44C" stroke-width="2" stroke-miterlimit="10" x1="1254.575" y1="180.59" x2="1242.368" y2="191.342"/>
	
		<line fill="none" stroke="#49C44C" stroke-width="2" stroke-miterlimit="10" x1="1254.575" y1="218.366" x2="1242.368" y2="229.117"/>
	
		<line fill="none" stroke="#49C44C" stroke-width="2" stroke-miterlimit="10" x1="1230.161" y1="206.446" x2="1242.368" y2="217.198"/>
	
		<line fill="none" stroke="#49C44C" stroke-width="2" stroke-miterlimit="10" x1="1230.161" y1="193.57" x2="1242.368" y2="204.322"/>
	
		<line fill="none" stroke="#49C44C" stroke-width="2" stroke-miterlimit="10" x1="1230.161" y1="180.59" x2="1242.368" y2="191.342"/>
	
		<line fill="none" stroke="#49C44C" stroke-width="2" stroke-miterlimit="10" x1="1230.161" y1="218.366" x2="1242.368" y2="229.117"/>
</g>
<g>
	<polygon fill="#267026" points="1267.683,224.436 1318.313,224.436 1292.998,90.748 	"/>
	
		<line fill="none" stroke="#49C44C" stroke-width="3" stroke-miterlimit="10" x1="1292.998" y1="224.436" x2="1292.998" y2="157.592"/>
	
		<line fill="none" stroke="#49C44C" stroke-width="2" stroke-miterlimit="10" x1="1305.205" y1="196.481" x2="1292.998" y2="207.232"/>
	
		<line fill="none" stroke="#49C44C" stroke-width="2" stroke-miterlimit="10" x1="1305.205" y1="183.605" x2="1292.998" y2="194.356"/>
	
		<line fill="none" stroke="#49C44C" stroke-width="2" stroke-miterlimit="10" x1="1305.205" y1="170.625" x2="1292.998" y2="181.377"/>
	
		<line fill="none" stroke="#49C44C" stroke-width="2" stroke-miterlimit="10" x1="1305.205" y1="208.401" x2="1292.998" y2="219.153"/>
	
		<line fill="none" stroke="#49C44C" stroke-width="2" stroke-miterlimit="10" x1="1280.79" y1="196.481" x2="1292.998" y2="207.232"/>
	
		<line fill="none" stroke="#49C44C" stroke-width="2" stroke-miterlimit="10" x1="1280.79" y1="183.605" x2="1292.998" y2="194.356"/>
	
		<line fill="none" stroke="#49C44C" stroke-width="2" stroke-miterlimit="10" x1="1280.79" y1="170.625" x2="1292.998" y2="181.377"/>
	
		<line fill="none" stroke="#49C44C" stroke-width="2" stroke-miterlimit="10" x1="1280.79" y1="208.401" x2="1292.998" y2="219.153"/>
</g>
<g>
	<polygon fill="#267026" points="1318.313,234.4 1368.943,234.4 1343.629,100.713 	"/>
	
		<line fill="none" stroke="#49C44C" stroke-width="3" stroke-miterlimit="10" x1="1343.629" y1="234.4" x2="1343.629" y2="167.556"/>
	
		<line fill="none" stroke="#49C44C" stroke-width="2" stroke-miterlimit="10" x1="1355.836" y1="206.446" x2="1343.629" y2="217.198"/>
	
		<line fill="none" stroke="#49C44C" stroke-width="2" stroke-miterlimit="10" x1="1355.836" y1="193.57" x2="1343.629" y2="204.322"/>
	
		<line fill="none" stroke="#49C44C" stroke-width="2" stroke-miterlimit="10" x1="1355.836" y1="180.59" x2="1343.629" y2="191.342"/>
	
		<line fill="none" stroke="#49C44C" stroke-width="2" stroke-miterlimit="10" x1="1355.836" y1="218.366" x2="1343.629" y2="229.117"/>
	
		<line fill="none" stroke="#49C44C" stroke-width="2" stroke-miterlimit="10" x1="1331.42" y1="206.446" x2="1343.629" y2="217.198"/>
	
		<line fill="none" stroke="#49C44C" stroke-width="2" stroke-miterlimit="10" x1="1331.42" y1="193.57" x2="1343.629" y2="204.322"/>
	
		<line fill="none" stroke="#49C44C" stroke-width="2" stroke-miterlimit="10" x1="1331.42" y1="180.59" x2="1343.629" y2="191.342"/>
	
		<line fill="none" stroke="#49C44C" stroke-width="2" stroke-miterlimit="10" x1="1331.42" y1="218.366" x2="1343.629" y2="229.117"/>
</g>
<g>
	<polygon fill="#267026" points="1115.793,234.4 1166.423,234.4 1141.107,100.713 	"/>
	
		<line fill="none" stroke="#49C44C" stroke-width="3" stroke-miterlimit="10" x1="1141.107" y1="234.4" x2="1141.107" y2="167.556"/>
	
		<line fill="none" stroke="#49C44C" stroke-width="2" stroke-miterlimit="10" x1="1153.315" y1="206.446" x2="1141.107" y2="217.198"/>
	
		<line fill="none" stroke="#49C44C" stroke-width="2" stroke-miterlimit="10" x1="1153.315" y1="193.57" x2="1141.107" y2="204.322"/>
	
		<line fill="none" stroke="#49C44C" stroke-width="2" stroke-miterlimit="10" x1="1153.315" y1="180.59" x2="1141.107" y2="191.342"/>
	
		<line fill="none" stroke="#49C44C" stroke-width="2" stroke-miterlimit="10" x1="1153.315" y1="218.366" x2="1141.107" y2="229.117"/>
	
		<line fill="none" stroke="#49C44C" stroke-width="2" stroke-miterlimit="10" x1="1128.9" y1="206.446" x2="1141.107" y2="217.198"/>
	<line fill="none" stroke="#49C44C" stroke-width="2" stroke-miterlimit="10" x1="1128.9" y1="193.57" x2="1141.107" y2="204.322"/>
	<line fill="none" stroke="#49C44C" stroke-width="2" stroke-miterlimit="10" x1="1128.9" y1="180.59" x2="1141.107" y2="191.342"/>
	
		<line fill="none" stroke="#49C44C" stroke-width="2" stroke-miterlimit="10" x1="1128.9" y1="218.366" x2="1141.107" y2="229.117"/>
</g>
<g>
	<g>
		<path fill="#5B412B" d="M1635.316,246.232c0,0-0.223-0.813-0.49-2.246c-0.271-1.432-0.595-3.481-0.865-5.95
			c-0.117-1.235-0.261-2.573-0.321-3.995c-0.067-1.42-0.01-2.928,0.01-4.485c0.051-1.563,0.028-3.17-0.093-4.797
			c-0.099-1.628-0.345-3.276-0.578-4.93c-0.247-1.653-0.513-3.311-0.673-4.944c-0.082-0.816-0.163-1.627-0.243-2.428l-0.029-0.301
			l-0.015-0.149l-0.008-0.074l-0.004-0.038c0.001,0.117,0,0.022-0.001,0.044l-0.001-0.019c-0.01-0.09-0.012-0.22-0.027-0.275
			c-0.015-0.054-0.027-0.107-0.036-0.161c-0.079-0.302-0.186-0.61-0.321-0.888c-0.267-0.556-0.665-0.969-0.863-0.99
			c-0.154-0.053-0.568,0.064-1.017,0.441c-0.223,0.158-0.428,0.397-0.635,0.615c-0.036,0.036-0.141,0.153-0.119,0.12l-0.154,0.205
			l-0.311,0.4c-0.147,0.241-0.274,0.41-0.358,0.624c-0.032,0.1-0.095,0.21-0.112,0.299c-0.003,0.082-0.032,0.171-0.039,0.246
			c-0.013,0.253,0.103,0.455,0.453,0.639c0.335,0.161,0.778,0.229,1.147,0.181c0.38-0.049,0.647-0.19,0.773-0.358
			c0.122-0.22,0.167-0.321,0.213-0.468c0.043-0.15,0.077-0.301,0.077-0.443c0.023-0.596-0.334-0.982-0.581-0.901
			c-0.277,0.072-0.407,0.293-0.408,0.272l-0.172-0.102c0.026,0.016,0.022-0.239,0.444-0.526c0.226-0.134,0.638-0.101,0.913,0.142
			c0.285,0.228,0.496,0.586,0.595,1.016c0.052,0.216,0.072,0.45,0.051,0.694c-0.017,0.248-0.099,0.549-0.159,0.726
			c-0.234,0.646-0.845,1.052-1.438,1.225c-0.607,0.177-1.283,0.23-2.009,0.001c-0.183-0.048-0.364-0.13-0.546-0.243
			c-0.187-0.089-0.356-0.243-0.521-0.408c-0.335-0.332-0.544-0.816-0.611-1.301c-0.089-0.966,0.295-1.727,0.684-2.445l0.276-0.425
			l0.144-0.212c0.124-0.169,0.142-0.174,0.218-0.27c0.253-0.297,0.492-0.604,0.832-0.887c0.301-0.291,0.697-0.569,1.177-0.784
			c0.483-0.203,1.139-0.318,1.766-0.13c0.608,0.177,1.115,0.557,1.435,0.952c0.356,0.395,0.563,0.829,0.751,1.258
			c0.178,0.433,0.302,0.875,0.39,1.343l0.052,0.424c0.014,0.14,0.006,0.209,0.011,0.317l0.021,0.654
			c0.028,0.792,0.057,1.594,0.086,2.401c0.062,1.616,0.021,3.261-0.001,4.909c-0.009,1.648-0.03,3.302,0.093,4.924
			c0.1,1.623,0.296,3.215,0.558,4.747c0.245,1.536,0.524,3.02,0.665,4.436c0.149,1.415,0.203,2.759,0.268,3.998
			c0.094,2.481,0.075,4.558,0.016,6.014c-0.055,1.455-0.156,2.292-0.156,2.292L1635.316,246.232z"/>
	</g>
	<path fill="none" stroke="#B8C8CC" stroke-width="2" stroke-miterlimit="10" d="M1640.825,224.525c0,0-0.453,4.888-2.986,4.143
		c-2.531-0.746-3.863-3.677-3.863-3.677"/>
	<polygon fill="#B8C8CC" points="1713.798,126.626 1716.462,111.107 1705.929,108.965 1692.214,112.874 1694.538,122.769 
		1689.924,127.752 1688.106,132.229 1687.313,138.189 	"/>
	<path fill="#D6CE65" d="M1638.862,175.987c0,0,22.646-1.006,25.211-11.221c2.567-10.216-21.699,0.881-21.699,0.881
		L1638.862,175.987z"/>
	<g>
		<polygon fill="#267026" points="1580.498,212.538 1543.349,212.538 1561.923,114.447 		"/>
		
			<line fill="none" stroke="#49C44C" stroke-width="3" stroke-miterlimit="10" x1="1561.923" y1="212.538" x2="1561.923" y2="163.493"/>
		
			<line fill="none" stroke="#49C44C" stroke-width="2" stroke-miterlimit="10" x1="1552.966" y1="192.027" x2="1561.923" y2="199.916"/>
		
			<line fill="none" stroke="#49C44C" stroke-width="2" stroke-miterlimit="10" x1="1552.966" y1="182.581" x2="1561.923" y2="190.469"/>
		
			<line fill="none" stroke="#49C44C" stroke-width="2" stroke-miterlimit="10" x1="1552.966" y1="173.057" x2="1561.923" y2="180.944"/>
		
			<line fill="none" stroke="#49C44C" stroke-width="2" stroke-miterlimit="10" x1="1552.966" y1="200.774" x2="1561.923" y2="208.663"/>
		
			<line fill="none" stroke="#49C44C" stroke-width="2" stroke-miterlimit="10" x1="1570.881" y1="192.027" x2="1561.923" y2="199.916"/>
		
			<line fill="none" stroke="#49C44C" stroke-width="2" stroke-miterlimit="10" x1="1570.881" y1="182.581" x2="1561.923" y2="190.469"/>
		
			<line fill="none" stroke="#49C44C" stroke-width="2" stroke-miterlimit="10" x1="1570.881" y1="173.057" x2="1561.923" y2="180.944"/>
		
			<line fill="none" stroke="#49C44C" stroke-width="2" stroke-miterlimit="10" x1="1570.881" y1="200.774" x2="1561.923" y2="208.663"/>
	</g>
	<path fill="#FBFCE3" d="M1745.059,229.419l-37.584,14.161l-42.355-7.733c0,0-15.826-43.819-22.632-69.509
		c0,0,30.369-12.54,38.627-38.113l74.589,37.063L1745.059,229.419z"/>
	<path opacity="0.3" fill="#C6C6AB" d="M1707.475,243.58c0,0,2.942-38.861,14.131-74.331c0,0-35.963-15.185-40.491-41.024
		l74.589,37.063l-10.144,66.417L1707.475,243.58z"/>
	<polygon fill="#B8C8CC" points="1754.359,228.868 1707.475,243.58 1651.563,236.558 1657.659,220.643 1664.319,220.643 
		1664.852,229.419 1666.983,220.643 1669.914,220.643 1665.73,194.73 1690.637,197.213 1688.028,222.165 1695.487,223.326 
		1694.289,230.87 1700.815,225.993 1711.384,225.993 1729.586,222.165 1732.249,228.247 1732.782,222.165 1750.364,215.463 	"/>
	<path fill="#5B412B" d="M1732.817,188.016c0,0-42.665-19.801-51.703-50.201c0,0-4.649,28.523-45.287,40.978l7.155-10.577
		l38.132-39.99h2.93l53.279,43.094L1732.817,188.016z"/>
	<polygon fill="#5B412B" points="1739.453,128.225 1739.453,125.028 1684.312,121.271 1682.561,126.626 	"/>
	<path fill="#D6CE65" d="M1772.463,173.206l6.126,3.196v4.263h-3.063l3.063,1.618l-1.864,2.645l-4.262-2.645v4.98h-1.865
		l-3.464-1.804l-1.598,3.542h-4.528l-1.599-1.738l-2.664,1.909l-4.263,1.082l-1.331-2.991l-3.196,2.991h-3.464l-1.865-2.991v2.991
		h-5.86v-2.991l-2.663,4.69h-1.285v-6.228c0,0-43.712-30.33-51.703-56.17l3.996-2.931l54.343,1.599
		C1739.453,128.225,1763.671,151.095,1772.463,173.206z"/>
	<path fill="#D6CE65" d="M1681.114,128.225c0,0-5.184,27.704-42.355,47.74l-2.932,4.979l-3.196-1.803l4.529-3.177l-6.128,1.578
		l-1.331-4.424l6.659,0.961l-7.192-3.464l2.931-1.795l3.462,1.195c0,0,9.313-23.944,45.554-45.521V128.225z"/>
	<polygon fill="#5B412B" points="1682.561,135.417 1686.441,121.271 1678.45,121.271 1679.179,135.417 	"/>
	<polygon fill="#5B412B" points="1706.676,166.338 1661.39,164.454 1665.651,159.195 1702.962,162.522 	"/>
	<polygon fill="#5B412B" points="1682.561,162.767 1684.033,152.187 1688.028,147.375 1686.441,145.54 1681.514,149.034 
		1675.931,142.813 1675.931,147.375 1679.771,153.285 1678.45,162.522 	"/>
	<polygon fill="#B8C8CC" points="1708.541,212.28 1711.737,194.237 1700.016,190.043 1693.355,192.962 1692.024,212.28 
		1701.896,214.559 	"/>
	<polygon fill="#B8C8CC" points="1665.862,208.444 1663.731,191.108 1657.659,188.407 1651.532,191.896 1656.739,209.854 
		1662.077,212.142 	"/>
	<polygon fill="#5B412B" points="1684.033,240.636 1688.028,201.482 1669.914,201.482 1671.717,239.089 	"/>
	<polygon fill="none" stroke="#C6A36B" stroke-miterlimit="10" points="1681.979,222.168 1684.033,204.818 1673.11,204.818 
		1673.11,222.165 	"/>
	<polygon fill="none" stroke="#C6A36B" stroke-miterlimit="10" points="1681.979,227.828 1673.11,225.993 1673.11,237.306 
		1681.114,237.927 	"/>
	<polygon fill="#474F51" points="1706.676,209.227 1706.676,198.572 1701.881,194.73 1696.198,195.972 1694.6,208.548 	"/>
	<polygon fill="#474F51" points="1663.731,206.316 1662.1,194.73 1658.698,192.781 1654.286,194.73 1656.771,206.277 	"/>
	<polyline fill="none" stroke="#E2DF71" stroke-miterlimit="10" points="1705.754,134.309 1718.284,149.612 1716.909,132.532 
		1730.718,146.845 1727.912,132.552 1742.397,143.472 1738.122,132.474 	"/>
	<polyline fill="none" stroke="#E2DF71" stroke-miterlimit="10" points="1718.548,155.199 1731.995,165.338 1727.188,149.323 
		1743.171,160.045 1738.376,146.944 1754.359,157.279 1749.032,143.792 	"/>
	<polyline fill="none" stroke="#E2DF71" stroke-miterlimit="10" points="1729.852,170.581 1743.97,180.944 1742.397,165.338 
		1757.29,175.23 1754.359,163.493 1766.348,174.576 1764.482,164.986 	"/>
	<polygon fill="#5B412B" points="1718.546,111.417 1689.202,113.664 1691.375,106.509 1718.61,107.539 	"/>
	<g>
		
			<line fill="none" stroke="#474F51" stroke-width="2" stroke-linecap="round" stroke-miterlimit="10" x1="1622.141" y1="237.061" x2="1622.141" y2="245.358"/>
		
			<line fill="none" stroke="#474F51" stroke-width="2" stroke-linecap="round" stroke-miterlimit="10" x1="1625.088" y1="237.927" x2="1625.088" y2="246.225"/>
		
			<line fill="none" stroke="#474F51" stroke-width="2" stroke-linecap="round" stroke-miterlimit="10" x1="1608.457" y1="239.618" x2="1608.457" y2="245.888"/>
		
			<line fill="none" stroke="#474F51" stroke-width="2" stroke-linecap="round" stroke-miterlimit="10" x1="1604.838" y1="238.263" x2="1604.838" y2="245.714"/>
		<path fill="#FBFCE3" d="M1602.797,234.565c0,4.671,3.019,7.394,10.027,7.394s15.355-2.723,15.355-7.394
			c0-4.672-8.347-8.46-15.355-8.46S1602.797,229.894,1602.797,234.565z"/>
		<path fill="#474F51" d="M1601.405,232.773c-0.444,2.341,0.146,5.505,1.564,5.773c1.417,0.27,3.125-2.46,3.568-4.8
			c0.444-2.339-0.544-3.403-1.961-3.673C1603.159,229.806,1601.849,230.435,1601.405,232.773z"/>
	</g>
	<path fill="#CFE8A6" d="M1637.399,217.462c0,2.894,2.04,4.174,4.556,4.174c2.515,0,4.554-1.28,4.554-4.174
		c0-2.895-2.039-6.306-4.554-6.306C1639.439,211.156,1637.399,214.567,1637.399,217.462z"/>
	<path fill="#5B412B" d="M1646.871,217.999c0,0-2.57,1.465-3.464-2.132c-0.893-3.596-4.545-3.329-4.545-3.329
		s3.065-2.932,6.936-2.265c3.87,0.665,4.936,2.311,4.802,3.22C1650.468,214.402,1646.737,214.802,1646.871,217.999z"/>
	<path fill="#B8C8CC" d="M1638.819,231.552c0,3.438,1.641,3.563,3.668,3.563c2.025,0,3.668-0.124,3.668-3.563
		c0-3.44-1.643-8.892-3.668-8.892C1640.46,222.66,1638.819,228.111,1638.819,231.552z"/>
	<path fill="#5B412B" d="M1646.143,231.96c-0.13,3.032-1.715,3.154-3.655,3.154s-3.526-0.122-3.655-3.154H1646.143z"/>
	<path fill="none" stroke="#5B412B" stroke-width="2" stroke-miterlimit="10" d="M1645.006,234.032c0,0-1.737,8.186-0.27,12.192"/>
	<path fill="none" stroke="#5B412B" stroke-width="2" stroke-miterlimit="10" d="M1640.237,234.291c0,0-1.758,9.524-0.825,11.934"/>
	<path fill="#CFE8A6" d="M1643.94,221.059l-0.176,2.326l-1.277,1.141l-1.287-1.13c0,0,1.232-0.668,0.755-2.066L1643.94,221.059z"/>
	<polygon fill="#5B412B" points="1642.003,216.929 1644.411,218.598 1643.206,219.155 1645.006,220.263 1642.756,220.532 
		1643.208,222.168 1641.955,221.86 1640.877,223.326 1639.944,221.636 1638.08,222.792 1638.472,221.059 1635.948,221.059 
		1637.399,219.859 1635.083,218.731 1637.015,217.933 1635.749,217.51 1638.862,216.929 	"/>
	<path fill="#C6A36B" d="M1638.472,216.929c0,0.614,0.792,0.58,1.766,0.58c0.976,0,1.766,0.034,1.766-0.58
		c0-0.615-0.79-1.646-1.766-1.646C1639.264,215.282,1638.472,216.313,1638.472,216.929z"/>
	<path fill="#5B412B" d="M1639.585,245.354c0,0,1.575,0.882,0.279,1.747s-1.246-0.199-2.485,0c-1.238,0.2-1.734-1.163-0.941-1.747
		s0.446,0.193,1.288,0.338C1638.568,245.837,1639.585,245.354,1639.585,245.354z"/>
	<path fill="#5B412B" d="M1644.342,245.358c0,0,1.779,0.309,0.843,1.555c-0.936,1.247-1.241,0.225-2.344,0.823
		c-1.104,0.6-2.022-0.522-1.468-1.335c0.555-0.814,0.484,0.033,1.327-0.11C1643.544,246.148,1644.342,245.358,1644.342,245.358z"/>
	<path fill="none" stroke="#B8C8CC" stroke-width="2" stroke-miterlimit="10" d="M1644.204,224.525c0,0,3.333,0.266,3.599,3.729
		c0.268,3.463-2.192,2.757-2.192,2.757"/>
	<line fill="none" stroke="#5B412B" stroke-miterlimit="10" x1="1644.084" y1="223.799" x2="1643.94" y2="233.537"/>
	<line fill="none" stroke="#5B412B" stroke-miterlimit="10" x1="1640.732" y1="224.039" x2="1640.237" y2="233.537"/>
	<ellipse fill="#CFE8A6" cx="1645.72" cy="231.071" rx="0.789" ry="1.143"/>
	<ellipse fill="#CFE8A6" cx="1633.777" cy="224.94" rx="0.79" ry="1.143"/>
	<g>
		
			<line fill="none" stroke="#474F51" stroke-width="2" stroke-miterlimit="10" x1="1698.215" y1="271.472" x2="1697.205" y2="277.955"/>
		
			<line fill="none" stroke="#474F51" stroke-width="2" stroke-miterlimit="10" x1="1691.563" y1="271.856" x2="1693.416" y2="278.175"/>
		<path fill="#FBFCE3" d="M1686.783,266.522c0.246,4.244,3.074,7.533,8.261,7.233c5.188-0.301,7.618-3.893,7.372-8.138
			c-0.246-4.244-3.073-7.531-8.261-7.231S1686.537,262.28,1686.783,266.522z"/>
		<path fill="#474F51" d="M1691.592,266.202c0.126,2.177,1.62,4.654,3.279,4.557c1.659-0.096,2.856-2.727,2.731-4.904
			c-0.127-2.178-1.528-3.074-3.188-2.979C1692.755,262.971,1691.466,264.025,1691.592,266.202z"/>
	</g>
	<g>
		
			<line fill="none" stroke="#474F51" stroke-width="2" stroke-miterlimit="10" x1="1584.298" y1="221.135" x2="1583.288" y2="227.618"/>
		
			<line fill="none" stroke="#474F51" stroke-width="2" stroke-miterlimit="10" x1="1577.646" y1="221.521" x2="1579.499" y2="227.839"/>
		<path fill="#FBFCE3" d="M1572.866,216.187c0.246,4.244,3.073,7.532,8.262,7.232c5.188-0.301,7.617-3.892,7.371-8.137
			c-0.246-4.244-3.074-7.532-8.261-7.232C1575.051,208.35,1572.62,211.943,1572.866,216.187z"/>
	</g>
	<g>
		
			<line fill="none" stroke="#474F51" stroke-width="2" stroke-linecap="round" stroke-miterlimit="10" x1="1737.327" y1="240.74" x2="1738.357" y2="248.974"/>
		
			<line fill="none" stroke="#474F51" stroke-width="2" stroke-linecap="round" stroke-miterlimit="10" x1="1740.358" y1="241.233" x2="1741.389" y2="249.467"/>
		
			<line fill="none" stroke="#474F51" stroke-width="2" stroke-linecap="round" stroke-miterlimit="10" x1="1724.066" y1="244.978" x2="1724.846" y2="251.199"/>
		
			<line fill="none" stroke="#474F51" stroke-width="2" stroke-linecap="round" stroke-miterlimit="10" x1="1720.308" y1="244.083" x2="1721.233" y2="251.476"/>
		<path fill="#FBFCE3" d="M1717.823,240.667c0.581,4.636,3.913,6.962,10.867,6.091c6.955-0.87,14.897-4.607,14.317-9.243
			s-9.332-7.357-16.286-6.486C1719.768,231.898,1717.243,236.032,1717.823,240.667z"/>
		<path fill="#474F51" d="M1716.219,239.063c-0.149,2.377,0.829,5.443,2.27,5.534c1.439,0.091,2.796-2.828,2.946-5.206
			c0.149-2.376-0.964-3.31-2.404-3.4C1717.591,235.9,1716.369,236.686,1716.219,239.063z"/>
	</g>
</g>
</svg>
