<?xml version="1.0" encoding="utf-8"?>
<!-- Generator: Adobe Illustrator 17.1.0, SVG Export Plug-In . SVG Version: 6.00 Build 0)  -->
<!DOCTYPE svg PUBLIC "-//W3C//DTD SVG 1.1//EN" "http://www.w3.org/Graphics/SVG/1.1/DTD/svg11.dtd">
<svg version="1.1" id="Layer_1" xmlns="http://www.w3.org/2000/svg" xmlns:xlink="http://www.w3.org/1999/xlink" x="0px" y="0px"
	 viewBox="0 0 21 50" enable-background="new 0 0 21 50" xml:space="preserve">
<g>
	<path fill="#FFFFFF" d="M8.594,25.219c0,5.9,4.406,10.732,10.406,11.125v-3.186c-4-0.383-7.219-3.795-7.219-7.938
		S15,17.664,19,17.281v-3.186C13,14.487,8.594,19.32,8.594,25.219z"/>
	<path fill="#FFFFFF" d="M19,43.875v-1.062C9,42.414,2.133,34.687,2.133,25.219S9,8.025,19,7.626V6.563
		C8,6.964,1.071,15.166,1.071,25.219S8,43.475,19,43.875z"/>
	<path fill="#FFFFFF" d="M4.151,25.219C4.151,33.575,10,40.398,19,40.795v-1.062c-8-0.396-13.787-6.745-13.787-14.514
		S11,11.102,19,10.706V9.644C10,10.041,4.151,16.864,4.151,25.219z"/>
</g>
<g>
	<rect x="20" fill="#ABD4FF" width="1" height="50"/>
</g>
</svg>
