<?xml version="1.0" encoding="utf-8"?>
<!-- Generator: Adobe Illustrator 17.1.0, SVG Export Plug-In . SVG Version: 6.00 Build 0)  -->
<!DOCTYPE svg PUBLIC "-//W3C//DTD SVG 1.1//EN" "http://www.w3.org/Graphics/SVG/1.1/DTD/svg11.dtd">
<svg version="1.1" id="Layer_1" xmlns="http://www.w3.org/2000/svg" xmlns:xlink="http://www.w3.org/1999/xlink" x="0px" y="0px"
	 viewBox="0 0 716 460" enable-background="new 0 0 716 460" xml:space="preserve">
<g>
	<g opacity="0.57">
		<g>
			<path d="M50.091,95.484v49.309H34.919V38.59h15.172v45.516h26.551V38.59h15.172v106.203H76.642V95.484H50.091z"/>
			<path d="M122.865,38.59v106.203h-15.172V38.59H122.865z"/>
			<path d="M205.124,52.102h-18.965v92.69h-15.172v-92.69h-18.965V38.59h53.102V52.102z"/>
			<path d="M227.643,95.484v49.309h-15.172V38.59h15.172v45.516h26.551V38.59h15.172v106.203h-15.172V95.484H227.643z"/>
			<path d="M299.706,95.484v37.93h26.551v11.379h-41.723V38.59h41.723v11.379h-26.551v34.137h18.965v11.379H299.706z"/>
			<path d="M375.386,91.691l17.068,53.102H377.4l-15.29-49.309h-11.379v49.309H335.56V38.59h18.965
				c21.632,0,34.137,7.349,34.137,28.447C388.661,79.542,384.216,88.491,375.386,91.691z M354.524,49.969h-3.793v34.137h3.793
				c12.268,0,18.965-4.682,18.965-17.068S366.792,49.969,354.524,49.969z"/>
			<path d="M416.395,95.484v37.93h26.551v11.379h-41.723V38.59h41.723v11.379h-26.551v34.137h18.965v11.379H416.395z"/>
			<path d="M464.338,129.621c0,5.689-0.059,10.489-0.178,14.342c-0.296,9.602-1.6,16.002-11.201,16.002l-3.793-7.586
				c5.512,0,7.586-2.312,7.586-7.586h-7.586v-15.172H464.338z"/>
		</g>
	</g>
	<g>
		<g>
			<path fill="#ABD4FF" d="M509.868,59.96c0-1.372-0.078-2.357-0.232-2.955c-0.066-0.177-0.382-0.337-0.946-0.481
				c-0.564-0.144-0.991-0.216-1.278-0.216c-0.089,0-0.133-0.144-0.133-0.432c0-0.266,0.044-0.442,0.133-0.531
				c2.545,0.111,3.873,0.166,3.984,0.166c0.354,0,1.638-0.055,3.852-0.166c0.044,0.133,0.066,0.299,0.066,0.498
				c0,0.311-0.045,0.465-0.133,0.465c-0.222,0-0.62,0.078-1.195,0.232c-0.576,0.155-0.886,0.311-0.93,0.465
				c-0.199,0.775-0.299,1.805-0.299,3.088V72.71c0,1.284,0.1,2.313,0.299,3.088c0.044,0.155,0.354,0.305,0.93,0.448
				c0.575,0.145,0.974,0.216,1.195,0.216c0.088,0,0.133,0.166,0.133,0.498c0,0.178-0.022,0.332-0.066,0.465
				c-2.214-0.11-3.498-0.166-3.852-0.166c-0.111,0-1.439,0.056-3.984,0.166c-0.089-0.089-0.133-0.254-0.133-0.498
				c0-0.31,0.044-0.465,0.133-0.465c0.287,0,0.714-0.066,1.278-0.199s0.88-0.287,0.946-0.465c0.154-0.598,0.232-1.582,0.232-2.955
				V59.96z"/>
			<path fill="#ABD4FF" d="M521.456,56.241c0,0.576-0.116,1.146-0.349,1.71s-0.515,1.035-0.847,1.411
				c-0.332,0.377-0.676,0.714-1.029,1.013c-0.354,0.299-0.659,0.521-0.913,0.664c-0.255,0.145-0.415,0.216-0.481,0.216
				c-0.288,0-0.51-0.199-0.664-0.598c0.598-0.354,1.09-0.769,1.478-1.245c0.387-0.476,0.631-0.852,0.73-1.129
				c0.1-0.276,0.149-0.492,0.149-0.647c0-0.287-0.228-0.681-0.681-1.179c-0.454-0.498-0.681-0.901-0.681-1.212
				c0-0.398,0.221-0.735,0.664-1.013c0.442-0.276,0.94-0.415,1.494-0.415c0.199,0,0.42,0.033,0.664,0.1
				C521.301,54.36,521.456,55.135,521.456,56.241z"/>
			<path fill="#ABD4FF" d="M532.513,62.782c0.885,0,1.621,0.238,2.208,0.714c0.586,0.477,0.99,1.024,1.212,1.644
				c1.66-1.571,3.375-2.357,5.146-2.357c2.789,0,4.184,2.125,4.184,6.375v3.686c0,1.284,0.088,2.27,0.266,2.955
				c0.044,0.155,0.332,0.305,0.863,0.448c0.531,0.145,0.907,0.216,1.129,0.216c0.066,0,0.11,0.133,0.133,0.398
				c0.021,0.266,0.011,0.454-0.033,0.564c-2.214-0.11-3.398-0.166-3.553-0.166c-0.133,0-1.34,0.056-3.619,0.166
				c-0.089-0.089-0.133-0.271-0.133-0.548c0-0.276,0.044-0.415,0.133-0.415c0.266,0,0.658-0.071,1.179-0.216
				c0.52-0.144,0.802-0.293,0.847-0.448c0.154-0.642,0.232-1.35,0.232-2.125v-3.752c0-3.408-1.118-5.113-3.354-5.113
				c-0.819,0-1.527,0.238-2.125,0.714c-0.598,0.477-0.896,0.869-0.896,1.179l0.033,0.133c0,0.089,0,0.145,0,0.166
				c0.088,0.554,0.133,1.351,0.133,2.391v3.752c0,1.085,0.088,1.971,0.266,2.656c0.044,0.155,0.332,0.305,0.863,0.448
				c0.531,0.145,0.907,0.216,1.129,0.216c0.066,0,0.11,0.133,0.133,0.398c0.021,0.266,0.011,0.454-0.033,0.564
				c-2.214-0.11-3.398-0.166-3.553-0.166c-0.133,0-1.34,0.056-3.619,0.166c-0.089-0.089-0.133-0.271-0.133-0.548
				c0-0.276,0.044-0.415,0.133-0.415c0.266,0,0.658-0.071,1.179-0.216c0.52-0.144,0.802-0.293,0.847-0.448
				c0.154-0.642,0.232-1.416,0.232-2.324v-3.387c0-3.52-1.062-5.279-3.188-5.279c-0.664,0-1.334,0.249-2.009,0.747
				c-0.676,0.498-1.013,0.979-1.013,1.444v5.844c0,1.284,0.088,2.27,0.266,2.955c0.044,0.155,0.332,0.305,0.863,0.448
				c0.531,0.145,0.907,0.216,1.129,0.216c0.066,0,0.11,0.133,0.133,0.398c0.021,0.266,0.011,0.454-0.033,0.564
				c-2.214-0.11-3.398-0.166-3.553-0.166c-0.133,0-1.34,0.056-3.619,0.166c-0.089-0.089-0.133-0.271-0.133-0.548
				c0-0.276,0.044-0.415,0.133-0.415c0.266,0,0.658-0.071,1.179-0.216c0.52-0.144,0.802-0.293,0.847-0.448
				c0.154-0.642,0.232-1.416,0.232-2.324v-6.275c0-0.863-0.155-1.461-0.465-1.793c-0.222-0.266-0.493-0.448-0.813-0.548
				c-0.321-0.1-0.587-0.149-0.797-0.149c-0.211,0-0.315-0.021-0.315-0.066c0-0.531,0.066-0.808,0.199-0.83
				c2.346-0.354,3.873-0.642,4.582-0.863c0.021,0,0.077-0.011,0.166-0.033c0.088,0,0.144,0.095,0.166,0.282
				c0.021,0.188,0.021,0.327,0,0.415c-0.089,0.62-0.133,1.062-0.133,1.328c0,0.089,0.021,0.133,0.066,0.133
				c0.021,0,0.055-0.021,0.1-0.066c0.509-0.531,1.2-1.034,2.075-1.511C530.88,63.02,531.716,62.782,532.513,62.782z"/>
			<path fill="#FFFFFF" d="M558.079,61.055c0-1.704,0.652-3.104,1.959-4.2c1.306-1.096,2.822-1.644,4.549-1.644
				c0.486,0,0.946,0.028,1.378,0.083c0.432,0.056,0.785,0.116,1.062,0.183c0.276,0.066,0.675,0.172,1.195,0.315
				c0.52,0.145,0.979,0.261,1.378,0.349c0.266,1.174,0.398,2.756,0.398,4.748c0,0.155-0.111,0.232-0.332,0.232
				c-0.531,0-0.819-0.11-0.863-0.332c-0.111-0.974-0.581-1.92-1.411-2.839c-0.83-0.918-1.843-1.378-3.038-1.378
				c-1.328,0-2.264,0.332-2.806,0.996c-0.543,0.664-0.813,1.483-0.813,2.457c0,0.421,0.077,0.825,0.232,1.212
				c0.154,0.388,0.31,0.709,0.465,0.963c0.154,0.255,0.437,0.548,0.847,0.88c0.409,0.332,0.708,0.564,0.896,0.697
				c0.188,0.133,0.564,0.377,1.129,0.73c0.564,0.354,0.924,0.576,1.079,0.664c0.11,0.066,0.498,0.305,1.162,0.714
				c0.664,0.41,1.117,0.697,1.361,0.863c0.243,0.166,0.625,0.465,1.146,0.896c0.52,0.432,0.896,0.813,1.129,1.146
				s0.453,0.747,0.664,1.245c0.21,0.498,0.315,1.013,0.315,1.544c0,1.771-0.692,3.227-2.075,4.366
				c-1.384,1.141-3.005,1.71-4.864,1.71c-0.531,0-1.096-0.039-1.693-0.116c-0.598-0.078-1.096-0.155-1.494-0.232
				s-0.902-0.188-1.511-0.332c-0.609-0.144-1.035-0.237-1.278-0.282c-0.554-2.723-0.83-4.482-0.83-5.279
				c0-0.133,0.177-0.199,0.531-0.199c0.398,0,0.675,0.1,0.83,0.299c0.752,3.188,2.59,4.781,5.512,4.781
				c1.106,0,2.047-0.332,2.822-0.996c0.774-0.664,1.162-1.604,1.162-2.822c0-0.442-0.066-0.852-0.199-1.229
				c-0.133-0.376-0.271-0.686-0.415-0.93c-0.145-0.243-0.398-0.503-0.764-0.78c-0.365-0.276-0.647-0.481-0.847-0.614
				s-0.564-0.343-1.096-0.631c-0.531-0.287-0.896-0.486-1.096-0.598c-0.643-0.376-1.091-0.642-1.345-0.797
				c-0.255-0.154-0.676-0.426-1.262-0.813c-0.587-0.387-1.013-0.73-1.278-1.029s-0.576-0.664-0.93-1.096
				c-0.354-0.432-0.604-0.891-0.747-1.378C558.15,62.096,558.079,61.587,558.079,61.055z"/>
			<path fill="#FFFFFF" d="M575.013,64.907h-1.926c-0.111,0-0.166-0.232-0.166-0.697c0-0.133,0.011-0.21,0.033-0.232
				c0.642-0.287,1.339-0.874,2.092-1.76c0.243-0.287,0.481-0.614,0.714-0.979s0.426-0.681,0.581-0.946
				c0.154-0.266,0.232-0.409,0.232-0.432c0.664,0,0.996,0.056,0.996,0.166v3.287c0.575,0,1.449,0.006,2.623,0.017
				c1.173,0.012,1.793,0.017,1.859,0.017c0.177,0,0.266,0.1,0.266,0.299c0,0.398-0.111,0.819-0.332,1.262h-4.416v8.135
				c0,0.886,0.227,1.594,0.681,2.125c0.453,0.531,1.046,0.797,1.776,0.797c0.664,0,1.35-0.21,2.059-0.631
				c0.066-0.044,0.166,0.05,0.299,0.282s0.188,0.36,0.166,0.382c-0.332,0.354-0.842,0.703-1.527,1.046
				c-0.687,0.343-1.395,0.515-2.125,0.515c-1.107,0-2.031-0.365-2.772-1.096c-0.742-0.73-1.112-1.771-1.112-3.121V64.907z"/>
			<path fill="#FFFFFF" d="M590.585,62.848c1.018,0,1.914,0.194,2.689,0.581c0.774,0.388,1.366,0.886,1.776,1.494
				c0.409,0.609,0.708,1.229,0.896,1.859c0.188,0.631,0.282,1.257,0.282,1.876c0,0.443-0.066,0.714-0.199,0.813
				s-0.388,0.149-0.764,0.149h-8.367c-0.178,0-0.266,0.056-0.266,0.166c0,1.395,0.42,2.679,1.262,3.852
				c0.841,1.174,2.059,1.76,3.652,1.76c0.465,0,0.907-0.044,1.328-0.133c0.42-0.088,0.78-0.193,1.079-0.315
				c0.299-0.121,0.553-0.243,0.764-0.365c0.21-0.121,0.393-0.237,0.548-0.349l0.232-0.166c0.133,0,0.199,0.145,0.199,0.432
				c0,0.178-0.066,0.377-0.199,0.598c-0.443,0.62-1.096,1.179-1.959,1.677s-1.805,0.747-2.822,0.747
				c-1.838,0-3.415-0.691-4.731-2.075c-1.317-1.383-1.976-3.071-1.976-5.063c0-2.324,0.625-4.161,1.876-5.512
				C587.137,63.524,588.703,62.848,590.585,62.848z M590.253,64.077c-1.151,0-2.031,0.493-2.64,1.478
				c-0.609,0.985-0.913,1.799-0.913,2.44c0,0.155,0.066,0.232,0.199,0.232h6.475c0.11,0,0.166-0.11,0.166-0.332
				c0-0.708-0.299-1.521-0.896-2.44C592.046,64.537,591.249,64.077,590.253,64.077z"/>
			<path fill="#FFFFFF" d="M609.776,64.94c0-0.708-0.797-1.062-2.391-1.062c-0.089,0-0.133-0.138-0.133-0.415
				c0-0.276,0.044-0.459,0.133-0.548c0.243,0.022,0.697,0.056,1.361,0.1c0.664,0.045,1.262,0.066,1.793,0.066l3.32-0.166
				c0.044,0.133,0.066,0.299,0.066,0.498c0,0.311-0.078,0.465-0.232,0.465c-0.311,0-0.72,0.089-1.229,0.266
				c-0.51,0.178-0.853,0.465-1.029,0.863l-5.279,11.92c-0.045,0.155-0.178,0.321-0.398,0.498c-0.222,0.177-0.41,0.266-0.564,0.266
				c-0.155,0-0.255-0.045-0.299-0.133c-0.377-0.818-1.201-2.723-2.474-5.711c-1.273-2.988-2.386-5.423-3.337-7.305
				c-0.222-0.442-0.875-0.664-1.959-0.664c-0.088,0-0.133-0.144-0.133-0.432c0-0.266,0.045-0.442,0.133-0.531
				c2.279,0.111,3.431,0.166,3.453,0.166l3.32-0.166c0.044,0.089,0.05,0.271,0.017,0.548c-0.033,0.277-0.083,0.415-0.149,0.415
				c-1.085,0-1.627,0.188-1.627,0.564c0,0.045,0.011,0.089,0.033,0.133l3.984,8.998l3.354-7.637
				C609.688,65.516,609.776,65.184,609.776,64.94z"/>
			<path fill="#FFFFFF" d="M621.231,62.848c1.018,0,1.914,0.194,2.689,0.581c0.774,0.388,1.366,0.886,1.776,1.494
				c0.409,0.609,0.708,1.229,0.896,1.859c0.188,0.631,0.282,1.257,0.282,1.876c0,0.443-0.066,0.714-0.199,0.813
				s-0.388,0.149-0.764,0.149h-8.367c-0.178,0-0.266,0.056-0.266,0.166c0,1.395,0.42,2.679,1.262,3.852
				c0.841,1.174,2.059,1.76,3.652,1.76c0.465,0,0.907-0.044,1.328-0.133c0.42-0.088,0.78-0.193,1.079-0.315
				c0.299-0.121,0.553-0.243,0.764-0.365c0.21-0.121,0.393-0.237,0.548-0.349l0.232-0.166c0.133,0,0.199,0.145,0.199,0.432
				c0,0.178-0.066,0.377-0.199,0.598c-0.443,0.62-1.096,1.179-1.959,1.677s-1.805,0.747-2.822,0.747
				c-1.838,0-3.415-0.691-4.731-2.075c-1.317-1.383-1.976-3.071-1.976-5.063c0-2.324,0.625-4.161,1.876-5.512
				C617.783,63.524,619.35,62.848,621.231,62.848z M620.899,64.077c-1.151,0-2.031,0.493-2.64,1.478
				c-0.609,0.985-0.913,1.799-0.913,2.44c0,0.155,0.066,0.232,0.199,0.232h6.475c0.11,0,0.166-0.11,0.166-0.332
				c0-0.708-0.299-1.521-0.896-2.44C622.692,64.537,621.896,64.077,620.899,64.077z"/>
			<path fill="#ABD4FF" d="M630.246,77.209c-0.388-0.387-0.581-0.847-0.581-1.378s0.193-0.979,0.581-1.345
				c0.387-0.365,0.847-0.548,1.378-0.548s0.979,0.183,1.345,0.548s0.548,0.813,0.548,1.345s-0.183,0.991-0.548,1.378
				s-0.813,0.581-1.345,0.581S630.633,77.596,630.246,77.209z"/>
			<path fill="#ABD4FF" d="M509.868,92.96c0-1.372-0.078-2.357-0.232-2.955c-0.066-0.177-0.382-0.337-0.946-0.481
				c-0.564-0.144-0.991-0.216-1.278-0.216c-0.089,0-0.133-0.144-0.133-0.432c0-0.266,0.044-0.442,0.133-0.531
				c2.545,0.111,3.873,0.166,3.984,0.166c0.354,0,1.638-0.055,3.852-0.166c0.044,0.133,0.066,0.299,0.066,0.498
				c0,0.311-0.045,0.465-0.133,0.465c-0.222,0-0.62,0.078-1.195,0.232c-0.576,0.155-0.886,0.311-0.93,0.465
				c-0.199,0.775-0.299,1.805-0.299,3.088v12.617c0,1.284,0.1,2.313,0.299,3.088c0.044,0.155,0.354,0.305,0.93,0.448
				c0.575,0.145,0.974,0.216,1.195,0.216c0.088,0,0.133,0.166,0.133,0.498c0,0.178-0.022,0.332-0.066,0.465
				c-2.214-0.11-3.498-0.166-3.852-0.166c-0.111,0-1.439,0.056-3.984,0.166c-0.089-0.089-0.133-0.254-0.133-0.498
				c0-0.31,0.044-0.465,0.133-0.465c0.287,0,0.714-0.066,1.278-0.199s0.88-0.287,0.946-0.465c0.154-0.598,0.232-1.582,0.232-2.955
				V92.96z"/>
			<path fill="#ABD4FF" d="M534.804,95.782c0.885,0,1.621,0.238,2.208,0.714c0.586,0.477,0.99,1.024,1.212,1.644
				c1.66-1.571,3.375-2.357,5.146-2.357c2.789,0,4.184,2.125,4.184,6.375v3.686c0,1.284,0.088,2.27,0.266,2.955
				c0.044,0.155,0.332,0.305,0.863,0.448c0.531,0.145,0.907,0.216,1.129,0.216c0.066,0,0.11,0.133,0.133,0.398
				c0.021,0.266,0.011,0.454-0.033,0.564c-2.214-0.11-3.398-0.166-3.553-0.166c-0.133,0-1.34,0.056-3.619,0.166
				c-0.089-0.089-0.133-0.271-0.133-0.548c0-0.276,0.044-0.415,0.133-0.415c0.266,0,0.658-0.071,1.179-0.216
				c0.52-0.144,0.802-0.293,0.847-0.448c0.154-0.642,0.232-1.35,0.232-2.125v-3.752c0-3.408-1.118-5.113-3.354-5.113
				c-0.819,0-1.527,0.238-2.125,0.714c-0.598,0.477-0.896,0.869-0.896,1.179l0.033,0.133c0,0.089,0,0.145,0,0.166
				c0.088,0.554,0.133,1.351,0.133,2.391v3.752c0,1.085,0.088,1.971,0.266,2.656c0.044,0.155,0.332,0.305,0.863,0.448
				c0.531,0.145,0.907,0.216,1.129,0.216c0.066,0,0.11,0.133,0.133,0.398c0.021,0.266,0.011,0.454-0.033,0.564
				c-2.214-0.11-3.398-0.166-3.553-0.166c-0.133,0-1.34,0.056-3.619,0.166c-0.089-0.089-0.133-0.271-0.133-0.548
				c0-0.276,0.044-0.415,0.133-0.415c0.266,0,0.658-0.071,1.179-0.216c0.52-0.144,0.802-0.293,0.847-0.448
				c0.154-0.642,0.232-1.416,0.232-2.324v-3.387c0-3.52-1.062-5.279-3.188-5.279c-0.664,0-1.334,0.249-2.009,0.747
				c-0.676,0.498-1.013,0.979-1.013,1.444v5.844c0,1.284,0.088,2.27,0.266,2.955c0.044,0.155,0.332,0.305,0.863,0.448
				c0.531,0.145,0.907,0.216,1.129,0.216c0.066,0,0.11,0.133,0.133,0.398c0.021,0.266,0.011,0.454-0.033,0.564
				c-2.214-0.11-3.398-0.166-3.553-0.166c-0.133,0-1.34,0.056-3.619,0.166c-0.089-0.089-0.133-0.271-0.133-0.548
				c0-0.276,0.044-0.415,0.133-0.415c0.266,0,0.658-0.071,1.179-0.216c0.52-0.144,0.802-0.293,0.847-0.448
				c0.154-0.642,0.232-1.416,0.232-2.324v-6.275c0-0.863-0.155-1.461-0.465-1.793c-0.222-0.266-0.493-0.448-0.813-0.548
				c-0.321-0.1-0.587-0.149-0.797-0.149c-0.211,0-0.315-0.021-0.315-0.066c0-0.531,0.066-0.808,0.199-0.83
				c2.346-0.354,3.873-0.642,4.582-0.863c0.021,0,0.077-0.011,0.166-0.033c0.088,0,0.144,0.095,0.166,0.282
				c0.021,0.188,0.021,0.327,0,0.415c-0.089,0.62-0.133,1.062-0.133,1.328c0,0.089,0.021,0.133,0.066,0.133
				c0.021,0,0.055-0.021,0.1-0.066c0.509-0.531,1.2-1.034,2.075-1.511C533.171,96.02,534.007,95.782,534.804,95.782z"/>
			<path fill="#ABD4FF" d="M558.511,95.848c1.217,0,2.092,0.294,2.623,0.88c0.531,0.587,0.797,1.533,0.797,2.839v7.67
				c0,0.465,0.121,0.853,0.365,1.162c0.243,0.311,0.575,0.465,0.996,0.465c0.31,0,0.697-0.154,1.162-0.465
				c0.088,0,0.133,0.089,0.133,0.266c0,0.288-0.056,0.521-0.166,0.697c-0.908,0.775-1.683,1.162-2.324,1.162
				c-0.51,0-0.996-0.21-1.461-0.631c-0.465-0.42-0.786-0.863-0.963-1.328c-0.022,0-0.105,0.072-0.249,0.216
				c-0.145,0.145-0.338,0.311-0.581,0.498c-0.244,0.188-0.526,0.382-0.847,0.581c-0.321,0.199-0.697,0.365-1.129,0.498
				s-0.869,0.199-1.312,0.199c-1.019,0-1.859-0.271-2.523-0.813c-0.664-0.542-0.996-1.355-0.996-2.44
				c0-0.486,0.121-0.946,0.365-1.378c0.243-0.432,0.531-0.785,0.863-1.062c0.332-0.276,0.785-0.559,1.361-0.847
				c0.575-0.287,1.067-0.503,1.478-0.647c0.409-0.144,0.946-0.326,1.61-0.548c0.664-0.221,1.129-0.387,1.395-0.498
				c0.199-0.066,0.299-0.232,0.299-0.498v-2.49c0-0.708-0.222-1.256-0.664-1.644c-0.443-0.387-0.975-0.581-1.594-0.581
				c-0.664,0-1.218,0.228-1.66,0.681c-0.443,0.454-0.664,1.046-0.664,1.776c0,0.775-0.454,1.162-1.361,1.162
				c-0.62,0-1.052-0.21-1.295-0.631c0-0.951,0.697-1.897,2.092-2.839C555.655,96.319,557.071,95.848,558.511,95.848z
				 M555.39,108.183c0.376,0.321,0.863,0.481,1.461,0.481s1.173-0.183,1.727-0.548c0.553-0.365,0.83-0.735,0.83-1.112v-3.42
				c-0.178,0.089-0.609,0.244-1.295,0.465c-0.687,0.222-1.224,0.415-1.61,0.581c-0.388,0.166-0.764,0.443-1.129,0.83
				c-0.365,0.388-0.548,0.836-0.548,1.345C554.825,107.403,555.013,107.863,555.39,108.183z"/>
			<path fill="#ABD4FF" d="M577.636,98.106c-0.377,0.222-1.096,0.747-2.158,1.577s-1.981,1.644-2.756,2.44
				c0.642,0.687,1.428,1.556,2.357,2.606c0.93,1.052,1.693,1.904,2.291,2.557c0.598,0.653,1.007,1.079,1.229,1.278
				c0.376,0.311,0.852,0.548,1.428,0.714c0.575,0.166,0.984,0.249,1.229,0.249c0.088,0,0.133,0.178,0.133,0.531
				c0,0.199-0.012,0.32-0.033,0.365c-2.214-0.11-3.42-0.166-3.619-0.166c-0.045,0-1.195,0.056-3.453,0.166
				c-0.089-0.089-0.133-0.26-0.133-0.515c0-0.254,0.044-0.382,0.133-0.382c0.221,0,0.476-0.044,0.764-0.133
				c0.287-0.088,0.432-0.188,0.432-0.299c0-0.044-0.012-0.077-0.033-0.1l-4.848-5.246l-0.398,0.1v1.992
				c0.044,1.461,0.133,2.446,0.266,2.955c0.044,0.155,0.332,0.305,0.863,0.448c0.531,0.145,0.907,0.216,1.129,0.216
				c0.066,0,0.11,0.133,0.133,0.398c0.021,0.266,0.011,0.454-0.033,0.564c-2.214-0.11-3.398-0.166-3.553-0.166
				c-0.133,0-1.34,0.056-3.619,0.166c-0.089-0.089-0.133-0.271-0.133-0.548c0-0.276,0.044-0.415,0.133-0.415
				c0.266,0,0.658-0.071,1.179-0.216c0.52-0.144,0.802-0.293,0.847-0.448c0.154-0.642,0.232-1.416,0.232-2.324V92.096
				c0-0.752-0.066-1.461-0.199-2.125c-0.111-0.354-0.676-0.531-1.693-0.531h-0.299c-0.133,0-0.199-0.121-0.199-0.365
				c0-0.354,0.066-0.531,0.199-0.531c0.664-0.066,1.278-0.154,1.843-0.266c0.564-0.11,1.007-0.221,1.328-0.332
				c0.32-0.11,0.592-0.216,0.813-0.315c0.221-0.1,0.376-0.183,0.465-0.249l0.166-0.1h0.066c0.088,0,0.177,0.062,0.266,0.183
				c0.088,0.122,0.144,0.238,0.166,0.349c-0.244,0.709-0.365,1.672-0.365,2.889v11.621c0.465-0.11,0.741-0.21,0.83-0.299
				c0.486-0.42,0.996-0.852,1.527-1.295c0.531-0.442,0.93-0.774,1.195-0.996c0.266-0.221,0.52-0.442,0.764-0.664
				c0.243-0.221,0.409-0.398,0.498-0.531c0.088-0.133,0.133-0.266,0.133-0.398c0-0.266-0.244-0.42-0.73-0.465
				c-0.487-0.044-0.742-0.088-0.764-0.133c-0.155-0.442-0.145-0.697,0.033-0.764h2.623c0.332,0,0.681-0.011,1.046-0.033
				c0.365-0.021,0.797-0.044,1.295-0.066c0.498-0.021,0.935-0.044,1.312-0.066c0.088,0.045,0.138,0.145,0.149,0.299
				c0.011,0.155-0.006,0.299-0.05,0.432c-0.045,0.133-0.089,0.199-0.133,0.199c-0.288,0-0.697,0.066-1.229,0.199
				S577.812,97.996,577.636,98.106z"/>
			<path fill="#ABD4FF" d="M589.058,95.848c1.018,0,1.914,0.194,2.689,0.581c0.774,0.388,1.366,0.886,1.776,1.494
				c0.409,0.609,0.708,1.229,0.896,1.859c0.188,0.631,0.282,1.257,0.282,1.876c0,0.443-0.066,0.714-0.199,0.813
				s-0.388,0.149-0.764,0.149h-8.367c-0.178,0-0.266,0.056-0.266,0.166c0,1.395,0.42,2.679,1.262,3.852
				c0.841,1.174,2.059,1.76,3.652,1.76c0.465,0,0.907-0.044,1.328-0.133c0.42-0.088,0.78-0.193,1.079-0.315
				c0.299-0.121,0.553-0.243,0.764-0.365c0.21-0.121,0.393-0.237,0.548-0.349l0.232-0.166c0.133,0,0.199,0.145,0.199,0.432
				c0,0.178-0.066,0.377-0.199,0.598c-0.443,0.62-1.096,1.179-1.959,1.677s-1.805,0.747-2.822,0.747
				c-1.838,0-3.415-0.691-4.731-2.075c-1.317-1.383-1.976-3.071-1.976-5.063c0-2.324,0.625-4.161,1.876-5.512
				C585.609,96.524,587.176,95.848,589.058,95.848z M588.726,97.077c-1.151,0-2.031,0.493-2.64,1.478
				c-0.609,0.985-0.913,1.799-0.913,2.44c0,0.155,0.066,0.232,0.199,0.232h6.475c0.11,0,0.166-0.11,0.166-0.332
				c0-0.708-0.299-1.521-0.896-2.44C590.519,97.537,589.722,97.077,588.726,97.077z"/>
			<path fill="#ABD4FF" d="M612.997,87.249c1.594,0,2.645,0.432,3.154,1.295c0,1.395-0.398,2.092-1.195,2.092
				c-0.288,0-0.564-0.171-0.83-0.515c-0.266-0.343-0.57-0.691-0.913-1.046c-0.344-0.354-0.759-0.531-1.245-0.531
				c-0.975,0-1.727,0.598-2.258,1.793s-0.797,2.602-0.797,4.217v1.693c0,0.111,0.055,0.166,0.166,0.166h3.686
				c0.11,0,0.166,0.078,0.166,0.232c0,0.354-0.133,0.797-0.398,1.328h-3.42c-0.133,0-0.199,0.066-0.199,0.199v7.67
				c0,1.195,0.1,2.181,0.299,2.955c0.044,0.155,0.315,0.305,0.813,0.448c0.498,0.145,0.847,0.216,1.046,0.216
				c0.066,0,0.11,0.133,0.133,0.398c0.021,0.266,0.011,0.454-0.033,0.564c-2.214-0.11-3.398-0.166-3.553-0.166
				c-0.066,0-1.229,0.056-3.486,0.166c-0.045-0.045-0.078-0.149-0.1-0.315c-0.022-0.166-0.022-0.315,0-0.448
				c0.021-0.133,0.055-0.199,0.1-0.199c0.266,0,0.642-0.071,1.129-0.216c0.486-0.144,0.752-0.293,0.797-0.448
				c0.221-0.863,0.332-1.848,0.332-2.955v-7.637c0-0.154-0.056-0.232-0.166-0.232h-1.76c-0.066,0-0.1-0.066-0.1-0.199
				c0-0.199,0.177-0.476,0.531-0.83c0.354-0.354,0.73-0.531,1.129-0.531h0.199c0.11,0,0.166-0.066,0.166-0.199v-0.432
				c0-2.324,0.691-4.327,2.075-6.01C609.848,88.091,611.358,87.249,612.997,87.249z"/>
			<path fill="#ABD4FF" d="M627.573,99.003v6.641c0,0.952,0.077,1.793,0.232,2.523c0.044,0.155,0.166,0.277,0.365,0.365
				c0.199,0.089,0.409,0.145,0.631,0.166c0.221,0.022,0.442,0.033,0.664,0.033l0.299,0.033c0.066,0.022,0.1,0.145,0.1,0.365
				c0,0.066-0.028,0.172-0.083,0.315c-0.056,0.145-0.116,0.216-0.183,0.216c-0.332,0.022-0.703,0.066-1.112,0.133
				c-0.41,0.066-0.792,0.145-1.146,0.232c-0.354,0.089-0.687,0.178-0.996,0.266c-0.311,0.088-0.554,0.166-0.73,0.232l-0.299,0.066
				c-0.178,0-0.266-0.178-0.266-0.531v-1.693l-0.066-0.166c-1.461,1.572-2.911,2.357-4.35,2.357c-0.819,0-1.522-0.205-2.108-0.614
				c-0.587-0.409-1.019-0.951-1.295-1.627c-0.277-0.675-0.471-1.328-0.581-1.959c-0.111-0.631-0.166-1.289-0.166-1.976v-4.184
				c0-0.863-0.155-1.461-0.465-1.793c-0.222-0.266-0.493-0.448-0.813-0.548c-0.321-0.1-0.587-0.149-0.797-0.149
				c-0.211,0-0.315-0.021-0.315-0.066c0-0.531,0.066-0.808,0.199-0.83c2.346-0.354,3.873-0.642,4.582-0.863
				c0.021,0,0.077-0.011,0.166-0.033c0.088,0,0.144,0.095,0.166,0.282c0.021,0.188,0.021,0.327,0,0.415
				c-0.133,1.062-0.199,1.882-0.199,2.457v4.482c0,1.705,0.254,2.961,0.764,3.769c0.509,0.809,1.339,1.212,2.49,1.212
				c0.664,0,1.295-0.26,1.893-0.78c0.598-0.52,0.896-0.968,0.896-1.345v-6.209c0-0.863-0.155-1.461-0.465-1.793
				c-0.222-0.266-0.493-0.448-0.813-0.548c-0.321-0.1-0.587-0.149-0.797-0.149c-0.211,0-0.315-0.021-0.315-0.066
				c0-0.531,0.066-0.808,0.199-0.83c2.346-0.354,3.873-0.642,4.582-0.863c0.021,0,0.077-0.011,0.166-0.033
				c0.088,0,0.144,0.095,0.166,0.282c0.021,0.188,0.021,0.327,0,0.415C627.64,97.675,627.573,98.471,627.573,99.003z"/>
			<path fill="#ABD4FF" d="M640.987,95.782c1.549,0,2.634,0.554,3.254,1.66c0.619,1.107,0.93,2.9,0.93,5.379v3.021
				c0,1.284,0.088,2.27,0.266,2.955c0.044,0.155,0.332,0.305,0.863,0.448c0.531,0.145,0.907,0.216,1.129,0.216
				c0.066,0,0.11,0.133,0.133,0.398c0.021,0.266,0.011,0.454-0.033,0.564c-2.214-0.11-3.398-0.166-3.553-0.166
				c-0.045,0-1.207,0.056-3.486,0.166c-0.089-0.089-0.133-0.271-0.133-0.548c0-0.276,0.044-0.415,0.133-0.415
				c0.266,0,0.636-0.071,1.112-0.216c0.476-0.144,0.735-0.293,0.78-0.448c0.154-0.642,0.232-1.416,0.232-2.324v-3.32
				c0-2.059-0.266-3.464-0.797-4.217c-0.531-0.752-1.395-1.129-2.59-1.129c-0.709,0-1.39,0.261-2.042,0.78
				c-0.653,0.521-0.979,0.991-0.979,1.411v5.844c0,1.284,0.088,2.27,0.266,2.955c0.044,0.155,0.332,0.305,0.863,0.448
				c0.531,0.145,0.907,0.216,1.129,0.216c0.066,0,0.11,0.133,0.133,0.398c0.021,0.266,0.011,0.454-0.033,0.564
				c-2.214-0.11-3.398-0.166-3.553-0.166c-0.133,0-1.34,0.056-3.619,0.166c-0.089-0.089-0.133-0.271-0.133-0.548
				c0-0.276,0.044-0.415,0.133-0.415c0.266,0,0.658-0.071,1.179-0.216c0.52-0.144,0.802-0.293,0.847-0.448
				c0.154-0.642,0.232-1.416,0.232-2.324v-6.275c0-0.863-0.155-1.461-0.465-1.793c-0.222-0.266-0.493-0.448-0.813-0.548
				c-0.321-0.1-0.587-0.149-0.797-0.149c-0.211,0-0.315-0.021-0.315-0.066c0-0.531,0.066-0.808,0.199-0.83
				c2.346-0.354,3.873-0.642,4.582-0.863c0.021,0,0.077-0.011,0.166-0.033c0.088,0,0.144,0.095,0.166,0.282
				c0.021,0.188,0.021,0.327,0,0.415c-0.089,0.62-0.133,1.062-0.133,1.328c0,0.089,0.021,0.133,0.066,0.133
				c0.021,0,0.055-0.021,0.1-0.066c0.509-0.531,1.2-1.034,2.075-1.511C639.354,96.02,640.19,95.782,640.987,95.782z"/>
			<path fill="#ABD4FF" d="M513.786,128.848c1.217,0,2.092,0.294,2.623,0.88c0.531,0.587,0.797,1.533,0.797,2.839v7.67
				c0,0.465,0.121,0.853,0.365,1.162c0.243,0.311,0.575,0.465,0.996,0.465c0.31,0,0.697-0.154,1.162-0.465
				c0.088,0,0.133,0.089,0.133,0.266c0,0.288-0.056,0.521-0.166,0.697c-0.908,0.775-1.683,1.162-2.324,1.162
				c-0.51,0-0.996-0.21-1.461-0.631c-0.465-0.42-0.786-0.863-0.963-1.328c-0.022,0-0.105,0.072-0.249,0.216
				c-0.145,0.145-0.338,0.311-0.581,0.498c-0.244,0.188-0.526,0.382-0.847,0.581c-0.321,0.199-0.697,0.365-1.129,0.498
				s-0.869,0.199-1.312,0.199c-1.019,0-1.859-0.271-2.523-0.813c-0.664-0.542-0.996-1.355-0.996-2.44
				c0-0.486,0.121-0.946,0.365-1.378c0.243-0.432,0.531-0.785,0.863-1.062c0.332-0.276,0.785-0.559,1.361-0.847
				c0.575-0.287,1.067-0.503,1.478-0.647c0.409-0.144,0.946-0.326,1.61-0.548c0.664-0.221,1.129-0.387,1.395-0.498
				c0.199-0.066,0.299-0.232,0.299-0.498v-2.49c0-0.708-0.222-1.256-0.664-1.644c-0.443-0.387-0.975-0.581-1.594-0.581
				c-0.664,0-1.218,0.228-1.66,0.681c-0.443,0.454-0.664,1.046-0.664,1.776c0,0.775-0.454,1.162-1.361,1.162
				c-0.62,0-1.052-0.21-1.295-0.631c0-0.951,0.697-1.897,2.092-2.839C510.931,129.319,512.347,128.848,513.786,128.848z
				 M510.665,141.183c0.376,0.321,0.863,0.481,1.461,0.481s1.173-0.183,1.727-0.548c0.553-0.365,0.83-0.735,0.83-1.112v-3.42
				c-0.178,0.089-0.609,0.244-1.295,0.465c-0.687,0.222-1.224,0.415-1.61,0.581c-0.388,0.166-0.764,0.443-1.129,0.83
				c-0.365,0.388-0.548,0.836-0.548,1.345C510.101,140.403,510.288,140.863,510.665,141.183z"/>
			<path fill="#ABD4FF" d="M530.753,128.782c1.549,0,2.634,0.554,3.254,1.66c0.619,1.107,0.93,2.9,0.93,5.379v3.021
				c0,1.284,0.088,2.27,0.266,2.955c0.044,0.155,0.332,0.305,0.863,0.448c0.531,0.145,0.907,0.216,1.129,0.216
				c0.066,0,0.11,0.133,0.133,0.398c0.021,0.266,0.011,0.454-0.033,0.564c-2.214-0.11-3.398-0.166-3.553-0.166
				c-0.045,0-1.207,0.056-3.486,0.166c-0.089-0.089-0.133-0.271-0.133-0.548c0-0.276,0.044-0.415,0.133-0.415
				c0.266,0,0.636-0.071,1.112-0.216c0.476-0.144,0.735-0.293,0.78-0.448c0.154-0.642,0.232-1.416,0.232-2.324v-3.32
				c0-2.059-0.266-3.464-0.797-4.217c-0.531-0.752-1.395-1.129-2.59-1.129c-0.709,0-1.39,0.261-2.042,0.78
				c-0.653,0.521-0.979,0.991-0.979,1.411v5.844c0,1.284,0.088,2.27,0.266,2.955c0.044,0.155,0.332,0.305,0.863,0.448
				c0.531,0.145,0.907,0.216,1.129,0.216c0.066,0,0.11,0.133,0.133,0.398c0.021,0.266,0.011,0.454-0.033,0.564
				c-2.214-0.11-3.398-0.166-3.553-0.166c-0.133,0-1.34,0.056-3.619,0.166c-0.089-0.089-0.133-0.271-0.133-0.548
				c0-0.276,0.044-0.415,0.133-0.415c0.266,0,0.658-0.071,1.179-0.216c0.52-0.144,0.802-0.293,0.847-0.448
				c0.154-0.642,0.232-1.416,0.232-2.324v-6.275c0-0.863-0.155-1.461-0.465-1.793c-0.222-0.266-0.493-0.448-0.813-0.548
				c-0.321-0.1-0.587-0.149-0.797-0.149c-0.211,0-0.315-0.021-0.315-0.066c0-0.531,0.066-0.808,0.199-0.83
				c2.346-0.354,3.873-0.642,4.582-0.863c0.021,0,0.077-0.011,0.166-0.033c0.088,0,0.144,0.095,0.166,0.282
				c0.021,0.188,0.021,0.327,0,0.415c-0.089,0.62-0.133,1.062-0.133,1.328c0,0.089,0.021,0.133,0.066,0.133
				c0.021,0,0.055-0.021,0.1-0.066c0.509-0.531,1.2-1.034,2.075-1.511C529.12,129.02,529.956,128.782,530.753,128.782z"/>
			<path fill="#ABD4FF" d="M544.101,138.843c0,1.284,0.088,2.27,0.266,2.955c0.044,0.155,0.332,0.305,0.863,0.448
				c0.531,0.145,0.907,0.216,1.129,0.216c0.066,0,0.11,0.133,0.133,0.398c0.021,0.266,0.011,0.454-0.033,0.564
				c-2.214-0.11-3.398-0.166-3.553-0.166c-0.155,0-1.361,0.056-3.619,0.166c-0.089-0.089-0.133-0.271-0.133-0.548
				c0-0.276,0.044-0.415,0.133-0.415c0.266,0,0.658-0.071,1.179-0.216c0.52-0.144,0.802-0.293,0.847-0.448
				c0.154-0.642,0.232-1.416,0.232-2.324v-6.275c0-0.863-0.155-1.461-0.465-1.793c-0.222-0.266-0.493-0.448-0.813-0.548
				c-0.321-0.1-0.587-0.149-0.797-0.149c-0.211,0-0.315-0.021-0.315-0.066c0-0.531,0.066-0.808,0.199-0.83
				c2.346-0.354,3.873-0.642,4.582-0.863l0.066-0.033c0.044,0,0.077,0,0.1,0c0.088,0,0.144,0.095,0.166,0.282
				c0.021,0.188,0.021,0.327,0,0.415c-0.111,0.886-0.166,1.683-0.166,2.391V138.843z M541.395,124.814
				c-0.321-0.32-0.481-0.714-0.481-1.179s0.16-0.857,0.481-1.179c0.32-0.32,0.714-0.481,1.179-0.481s0.857,0.161,1.179,0.481
				c0.32,0.321,0.481,0.714,0.481,1.179s-0.161,0.858-0.481,1.179c-0.321,0.321-0.714,0.481-1.179,0.481
				S541.715,125.136,541.395,124.814z"/>
			<path fill="#ABD4FF" d="M557.647,128.782c0.885,0,1.621,0.238,2.208,0.714c0.586,0.477,0.99,1.024,1.212,1.644
				c1.66-1.571,3.375-2.357,5.146-2.357c2.789,0,4.184,2.125,4.184,6.375v3.686c0,1.284,0.088,2.27,0.266,2.955
				c0.044,0.155,0.332,0.305,0.863,0.448c0.531,0.145,0.907,0.216,1.129,0.216c0.066,0,0.11,0.133,0.133,0.398
				c0.021,0.266,0.011,0.454-0.033,0.564c-2.214-0.11-3.398-0.166-3.553-0.166c-0.133,0-1.34,0.056-3.619,0.166
				c-0.089-0.089-0.133-0.271-0.133-0.548c0-0.276,0.044-0.415,0.133-0.415c0.266,0,0.658-0.071,1.179-0.216
				c0.52-0.144,0.802-0.293,0.847-0.448c0.154-0.642,0.232-1.35,0.232-2.125v-3.752c0-3.408-1.118-5.113-3.354-5.113
				c-0.819,0-1.527,0.238-2.125,0.714c-0.598,0.477-0.896,0.869-0.896,1.179l0.033,0.133c0,0.089,0,0.145,0,0.166
				c0.088,0.554,0.133,1.351,0.133,2.391v3.752c0,1.085,0.088,1.971,0.266,2.656c0.044,0.155,0.332,0.305,0.863,0.448
				c0.531,0.145,0.907,0.216,1.129,0.216c0.066,0,0.11,0.133,0.133,0.398c0.021,0.266,0.011,0.454-0.033,0.564
				c-2.214-0.11-3.398-0.166-3.553-0.166c-0.133,0-1.34,0.056-3.619,0.166c-0.089-0.089-0.133-0.271-0.133-0.548
				c0-0.276,0.044-0.415,0.133-0.415c0.266,0,0.658-0.071,1.179-0.216c0.52-0.144,0.802-0.293,0.847-0.448
				c0.154-0.642,0.232-1.416,0.232-2.324v-3.387c0-3.52-1.062-5.279-3.188-5.279c-0.664,0-1.334,0.249-2.009,0.747
				c-0.676,0.498-1.013,0.979-1.013,1.444v5.844c0,1.284,0.088,2.27,0.266,2.955c0.044,0.155,0.332,0.305,0.863,0.448
				c0.531,0.145,0.907,0.216,1.129,0.216c0.066,0,0.11,0.133,0.133,0.398c0.021,0.266,0.011,0.454-0.033,0.564
				c-2.214-0.11-3.398-0.166-3.553-0.166c-0.133,0-1.34,0.056-3.619,0.166c-0.089-0.089-0.133-0.271-0.133-0.548
				c0-0.276,0.044-0.415,0.133-0.415c0.266,0,0.658-0.071,1.179-0.216c0.52-0.144,0.802-0.293,0.847-0.448
				c0.154-0.642,0.232-1.416,0.232-2.324v-6.275c0-0.863-0.155-1.461-0.465-1.793c-0.222-0.266-0.493-0.448-0.813-0.548
				c-0.321-0.1-0.587-0.149-0.797-0.149c-0.211,0-0.315-0.021-0.315-0.066c0-0.531,0.066-0.808,0.199-0.83
				c2.346-0.354,3.873-0.642,4.582-0.863c0.021,0,0.077-0.011,0.166-0.033c0.088,0,0.144,0.095,0.166,0.282
				c0.021,0.188,0.021,0.327,0,0.415c-0.089,0.62-0.133,1.062-0.133,1.328c0,0.089,0.021,0.133,0.066,0.133
				c0.021,0,0.055-0.021,0.1-0.066c0.509-0.531,1.2-1.034,2.075-1.511C556.015,129.02,556.851,128.782,557.647,128.782z"/>
			<path fill="#ABD4FF" d="M581.354,128.848c1.217,0,2.092,0.294,2.623,0.88c0.531,0.587,0.797,1.533,0.797,2.839v7.67
				c0,0.465,0.121,0.853,0.365,1.162c0.243,0.311,0.575,0.465,0.996,0.465c0.31,0,0.697-0.154,1.162-0.465
				c0.088,0,0.133,0.089,0.133,0.266c0,0.288-0.056,0.521-0.166,0.697c-0.908,0.775-1.683,1.162-2.324,1.162
				c-0.51,0-0.996-0.21-1.461-0.631c-0.465-0.42-0.786-0.863-0.963-1.328c-0.022,0-0.105,0.072-0.249,0.216
				c-0.145,0.145-0.338,0.311-0.581,0.498c-0.244,0.188-0.526,0.382-0.847,0.581c-0.321,0.199-0.697,0.365-1.129,0.498
				s-0.869,0.199-1.312,0.199c-1.019,0-1.859-0.271-2.523-0.813c-0.664-0.542-0.996-1.355-0.996-2.44
				c0-0.486,0.121-0.946,0.365-1.378c0.243-0.432,0.531-0.785,0.863-1.062c0.332-0.276,0.785-0.559,1.361-0.847
				c0.575-0.287,1.067-0.503,1.478-0.647c0.409-0.144,0.946-0.326,1.61-0.548c0.664-0.221,1.129-0.387,1.395-0.498
				c0.199-0.066,0.299-0.232,0.299-0.498v-2.49c0-0.708-0.222-1.256-0.664-1.644c-0.443-0.387-0.975-0.581-1.594-0.581
				c-0.664,0-1.218,0.228-1.66,0.681c-0.443,0.454-0.664,1.046-0.664,1.776c0,0.775-0.454,1.162-1.361,1.162
				c-0.62,0-1.052-0.21-1.295-0.631c0-0.951,0.697-1.897,2.092-2.839C578.499,129.319,579.915,128.848,581.354,128.848z
				 M578.233,141.183c0.376,0.321,0.863,0.481,1.461,0.481s1.173-0.183,1.727-0.548c0.553-0.365,0.83-0.735,0.83-1.112v-3.42
				c-0.178,0.089-0.609,0.244-1.295,0.465c-0.687,0.222-1.224,0.415-1.61,0.581c-0.388,0.166-0.764,0.443-1.129,0.83
				c-0.365,0.388-0.548,0.836-0.548,1.345C577.669,140.403,577.856,140.863,578.233,141.183z"/>
			<path fill="#ABD4FF" d="M590.286,130.907h-1.926c-0.111,0-0.166-0.232-0.166-0.697c0-0.133,0.011-0.21,0.033-0.232
				c0.642-0.287,1.339-0.874,2.092-1.76c0.243-0.287,0.481-0.614,0.714-0.979s0.426-0.681,0.581-0.946
				c0.154-0.266,0.232-0.409,0.232-0.432c0.664,0,0.996,0.056,0.996,0.166v3.287c0.575,0,1.449,0.006,2.623,0.017
				c1.173,0.012,1.793,0.017,1.859,0.017c0.177,0,0.266,0.1,0.266,0.299c0,0.398-0.111,0.819-0.332,1.262h-4.416v8.135
				c0,0.886,0.227,1.594,0.681,2.125c0.453,0.531,1.046,0.797,1.776,0.797c0.664,0,1.35-0.21,2.059-0.631
				c0.066-0.044,0.166,0.05,0.299,0.282s0.188,0.36,0.166,0.382c-0.332,0.354-0.842,0.703-1.527,1.046
				c-0.687,0.343-1.395,0.515-2.125,0.515c-1.107,0-2.031-0.365-2.772-1.096c-0.742-0.73-1.112-1.771-1.112-3.121V130.907z"/>
			<path fill="#ABD4FF" d="M604.065,138.843c0,1.284,0.088,2.27,0.266,2.955c0.044,0.155,0.332,0.305,0.863,0.448
				c0.531,0.145,0.907,0.216,1.129,0.216c0.066,0,0.11,0.133,0.133,0.398c0.021,0.266,0.011,0.454-0.033,0.564
				c-2.214-0.11-3.398-0.166-3.553-0.166c-0.155,0-1.361,0.056-3.619,0.166c-0.089-0.089-0.133-0.271-0.133-0.548
				c0-0.276,0.044-0.415,0.133-0.415c0.266,0,0.658-0.071,1.179-0.216c0.52-0.144,0.802-0.293,0.847-0.448
				c0.154-0.642,0.232-1.416,0.232-2.324v-6.275c0-0.863-0.155-1.461-0.465-1.793c-0.222-0.266-0.493-0.448-0.813-0.548
				c-0.321-0.1-0.587-0.149-0.797-0.149c-0.211,0-0.315-0.021-0.315-0.066c0-0.531,0.066-0.808,0.199-0.83
				c2.346-0.354,3.873-0.642,4.582-0.863l0.066-0.033c0.044,0,0.077,0,0.1,0c0.088,0,0.144,0.095,0.166,0.282
				c0.021,0.188,0.021,0.327,0,0.415c-0.111,0.886-0.166,1.683-0.166,2.391V138.843z M601.359,124.814
				c-0.321-0.32-0.481-0.714-0.481-1.179s0.16-0.857,0.481-1.179c0.32-0.32,0.714-0.481,1.179-0.481s0.857,0.161,1.179,0.481
				c0.32,0.321,0.481,0.714,0.481,1.179s-0.161,0.858-0.481,1.179c-0.321,0.321-0.714,0.481-1.179,0.481
				S601.68,125.136,601.359,124.814z"/>
			<path fill="#ABD4FF" d="M615.421,128.815c1.992,0,3.696,0.72,5.113,2.158c1.416,1.439,2.125,3.166,2.125,5.18
				c0,2.037-0.692,3.78-2.075,5.229c-1.384,1.45-3.083,2.175-5.097,2.175c-2.015,0-3.73-0.725-5.146-2.175
				c-1.417-1.449-2.125-3.192-2.125-5.229c0-2.059,0.686-3.796,2.059-5.213C611.646,129.524,613.362,128.815,615.421,128.815z
				 M615.056,130.11c-1.174,0-2.131,0.537-2.872,1.61c-0.742,1.074-1.112,2.386-1.112,3.935c0,1.815,0.47,3.37,1.411,4.665
				c0.94,1.295,2.042,1.942,3.304,1.942c1.173,0,2.136-0.553,2.889-1.66c0.752-1.106,1.129-2.435,1.129-3.984
				c0-1.793-0.477-3.325-1.428-4.599C617.424,130.747,616.317,130.11,615.056,130.11z"/>
			<path fill="#ABD4FF" d="M634.612,128.782c1.549,0,2.634,0.554,3.254,1.66c0.619,1.107,0.93,2.9,0.93,5.379v3.021
				c0,1.284,0.088,2.27,0.266,2.955c0.044,0.155,0.332,0.305,0.863,0.448c0.531,0.145,0.907,0.216,1.129,0.216
				c0.066,0,0.11,0.133,0.133,0.398c0.021,0.266,0.011,0.454-0.033,0.564c-2.214-0.11-3.398-0.166-3.553-0.166
				c-0.045,0-1.207,0.056-3.486,0.166c-0.089-0.089-0.133-0.271-0.133-0.548c0-0.276,0.044-0.415,0.133-0.415
				c0.266,0,0.636-0.071,1.112-0.216c0.476-0.144,0.735-0.293,0.78-0.448c0.154-0.642,0.232-1.416,0.232-2.324v-3.32
				c0-2.059-0.266-3.464-0.797-4.217c-0.531-0.752-1.395-1.129-2.59-1.129c-0.709,0-1.39,0.261-2.042,0.78
				c-0.653,0.521-0.979,0.991-0.979,1.411v5.844c0,1.284,0.088,2.27,0.266,2.955c0.044,0.155,0.332,0.305,0.863,0.448
				c0.531,0.145,0.907,0.216,1.129,0.216c0.066,0,0.11,0.133,0.133,0.398c0.021,0.266,0.011,0.454-0.033,0.564
				c-2.214-0.11-3.398-0.166-3.553-0.166c-0.133,0-1.34,0.056-3.619,0.166c-0.089-0.089-0.133-0.271-0.133-0.548
				c0-0.276,0.044-0.415,0.133-0.415c0.266,0,0.658-0.071,1.179-0.216c0.52-0.144,0.802-0.293,0.847-0.448
				c0.154-0.642,0.232-1.416,0.232-2.324v-6.275c0-0.863-0.155-1.461-0.465-1.793c-0.222-0.266-0.493-0.448-0.813-0.548
				c-0.321-0.1-0.587-0.149-0.797-0.149c-0.211,0-0.315-0.021-0.315-0.066c0-0.531,0.066-0.808,0.199-0.83
				c2.346-0.354,3.873-0.642,4.582-0.863c0.021,0,0.077-0.011,0.166-0.033c0.088,0,0.144,0.095,0.166,0.282
				c0.021,0.188,0.021,0.327,0,0.415c-0.089,0.62-0.133,1.062-0.133,1.328c0,0.089,0.021,0.133,0.066,0.133
				c0.021,0,0.055-0.021,0.1-0.066c0.509-0.531,1.2-1.034,2.075-1.511C632.979,129.02,633.815,128.782,634.612,128.782z"/>
			<path fill="#ABD4FF" d="M648.292,128.815c0.486,0,1.101,0.062,1.843,0.183c0.741,0.122,1.256,0.205,1.544,0.249
				c0.221,1.019,0.354,2.147,0.398,3.387c0,0.111-0.145,0.166-0.432,0.166c-0.311,0-0.477-0.077-0.498-0.232
				c-0.111-0.619-0.427-1.206-0.946-1.76c-0.521-0.553-1.112-0.83-1.776-0.83c-1.594,0-2.391,0.653-2.391,1.959
				c0,0.332,0.044,0.626,0.133,0.88c0.088,0.255,0.26,0.498,0.515,0.73c0.254,0.232,0.448,0.398,0.581,0.498s0.426,0.277,0.88,0.531
				c0.453,0.255,0.735,0.415,0.847,0.481c0.088,0.045,0.349,0.194,0.78,0.448c0.432,0.255,0.735,0.438,0.913,0.548
				c0.177,0.111,0.437,0.299,0.78,0.564c0.343,0.266,0.592,0.504,0.747,0.714c0.154,0.211,0.304,0.477,0.448,0.797
				c0.144,0.321,0.216,0.647,0.216,0.979c0,1.307-0.51,2.396-1.527,3.271c-1.019,0.875-2.214,1.312-3.586,1.312
				c-0.465,0-0.892-0.028-1.278-0.083c-0.388-0.056-0.847-0.149-1.378-0.282s-0.941-0.221-1.229-0.266
				c-0.133-0.354-0.261-0.907-0.382-1.66c-0.122-0.752-0.183-1.35-0.183-1.793c0.177-0.133,0.31-0.199,0.398-0.199
				c0.332,0,0.509,0.066,0.531,0.199c0.133,0.664,0.548,1.312,1.245,1.942s1.455,0.946,2.274,0.946c0.708,0,1.289-0.193,1.743-0.581
				c0.453-0.387,0.681-0.946,0.681-1.677c0-0.376-0.072-0.725-0.216-1.046c-0.145-0.32-0.377-0.608-0.697-0.863
				c-0.321-0.254-0.62-0.465-0.896-0.631c-0.277-0.166-0.67-0.382-1.179-0.647c-0.51-0.266-0.886-0.476-1.129-0.631
				c-1.727-0.996-2.59-2.18-2.59-3.553c0-1.195,0.481-2.169,1.444-2.922C645.885,129.192,647.008,128.815,648.292,128.815z"/>
			<path fill="#ABD4FF" d="M656.41,143.209c-0.388-0.387-0.581-0.847-0.581-1.378s0.193-0.979,0.581-1.345
				c0.387-0.365,0.847-0.548,1.378-0.548s0.979,0.183,1.345,0.548s0.548,0.813,0.548,1.345s-0.183,0.991-0.548,1.378
				s-0.813,0.581-1.345,0.581S656.797,143.596,656.41,143.209z"/>
		</g>
	</g>
	<line fill="none" stroke="#ABD4FF" stroke-miterlimit="10" x1="32" y1="167.876" x2="684" y2="167.876"/>
	<line fill="none" stroke="#ABD4FF" stroke-miterlimit="10" x1="506" y1="38.876" x2="684" y2="38.876"/>
</g>
<g>
	<g>
		<g>
			<path fill="#FFFFFF" d="M333.622,364.868c-1.032,0-2.016-0.197-2.95-0.639c-2.459-1.032-3.984-3.294-3.984-5.802v-62.549
				c0-2.508,1.524-4.869,3.984-5.95c0.934-0.393,1.918-0.59,2.95-0.59c1.574,0,3.147,0.492,4.425,1.524l42.782,31.275
				c1.623,1.18,2.508,3.049,2.508,4.966s-0.885,3.786-2.508,4.966l-42.782,31.275C336.77,364.327,335.197,364.868,333.622,364.868z"
				/>
			<path fill="#268BF4" d="M333.622,291.337c1.198,0,2.294,0.374,3.169,1.08l0.037,0.03l0.039,0.028l42.786,31.279
				c1.054,0.766,1.684,2.018,1.684,3.348c0,1.33-0.63,2.582-1.688,3.351l-42.821,31.305c-0.93,0.715-2.068,1.109-3.206,1.109
				c-0.774,0-1.459-0.146-2.094-0.447l-0.04-0.019l-0.041-0.017c-1.701-0.714-2.758-2.231-2.758-3.958v-62.549
				c0-1.757,1.094-3.374,2.76-4.107C332.142,291.478,332.853,291.337,333.622,291.337 M333.622,289.337
				c-1.032,0-2.016,0.197-2.95,0.59c-2.459,1.081-3.984,3.442-3.984,5.95v62.549c0,2.508,1.524,4.77,3.984,5.802
				c0.934,0.442,1.918,0.639,2.95,0.639c1.574,0,3.147-0.541,4.425-1.524l42.782-31.275c1.623-1.18,2.508-3.049,2.508-4.966
				s-0.885-3.786-2.508-4.966l-42.782-31.275C336.77,289.828,335.197,289.337,333.622,289.337L333.622,289.337z"/>
			<path fill="#FFFFFF" d="M333.622,289.337c1.574,0,3.147,0.492,4.425,1.524l42.782,31.275c1.623,1.18,2.508,3.049,2.508,4.966
				s-0.885,3.786-2.508,4.966l-42.782,31.275c-1.278,0.984-2.851,1.524-4.425,1.524c-1.032,0-2.016-0.197-2.95-0.639
				c-2.459-1.032-3.984-3.294-3.984-5.802v-62.549c0-2.508,1.524-4.869,3.984-5.95C331.606,289.534,332.59,289.337,333.622,289.337
				 M333.622,288.337c-1.161,0-2.284,0.225-3.338,0.669c-2.797,1.23-4.595,3.924-4.595,6.871v62.549
				c0,2.913,1.804,5.552,4.596,6.724c0.99,0.47,2.127,0.717,3.337,0.717c1.796,0,3.584-0.615,5.035-1.732l42.762-31.261
				c1.826-1.328,2.918-3.486,2.918-5.773c0-2.287-1.092-4.446-2.92-5.775l-42.779-31.274
				C337.282,288.957,335.487,288.337,333.622,288.337L333.622,288.337z"/>
		</g>
	</g>
	<g>
		<g>
			<path fill="#FFFFFF" d="M200.469,292.289h-4.772v20.681h-6.363v-44.543h11.136c7.954,0,11.136,4.772,11.136,12.727
				C211.605,288.436,207.653,292.289,200.469,292.289z M197.288,273.199h-1.591v14.317h1.591c5.369,0,7.954-1.044,7.954-6.363
				C205.242,274.964,203.601,273.199,197.288,273.199z"/>
			<path fill="#FFFFFF" d="M216.231,268.427h6.363v39.771h11.136v4.772h-17.499V268.427z"/>
			<path fill="#FFFFFF" d="M242.083,312.97h-6.363l9.545-44.543h6.363l9.545,44.543h-6.363l-2.386-11.136h-7.954L242.083,312.97z
				 M248.446,277.971l-3.182,19.09h6.363L248.446,277.971z"/>
			<path fill="#FFFFFF" d="M265.475,298.652l-9.545-30.226h6.363l6.363,22.271l6.363-22.271h6.363l-9.545,30.226v14.317h-6.363
				V298.652z"/>
		</g>
	</g>
	<g>
		<g>
			<path fill="#FFFFFF" d="M445.443,290.714l7.158,22.271h-6.313l-6.413-20.681h-4.772v20.681h-6.363v-44.543h7.954
				c9.072,0,14.317,3.082,14.317,11.932C451.011,285.618,449.146,289.372,445.443,290.714z M436.693,273.215h-1.591v14.317h1.591
				c5.146,0,7.954-1.964,7.954-7.158C444.647,275.179,441.839,273.215,436.693,273.215z"/>
			<path fill="#FFFFFF" d="M462.647,292.305v15.908h11.136v4.772h-17.499v-44.543h17.499v4.772h-11.136v14.317h7.954v4.772H462.647z
				"/>
			<path fill="#FFFFFF" d="M484.052,292.305v15.908h11.136v4.772h-17.499v-44.543h17.499v4.772h-11.136v14.317h7.954v4.772H484.052z
				"/>
			<path fill="#FFFFFF" d="M499.094,268.442h6.363v39.771h11.136v4.772h-17.499V268.442z"/>
		</g>
	</g>
	<circle fill="none" stroke="#FFFFFF" stroke-miterlimit="10" cx="350.962" cy="327.102" r="58.682"/>
	<line fill="none" stroke="#ABD4FF" stroke-width="3" stroke-miterlimit="10" x1="189" y1="320.876" x2="271" y2="320.876"/>
	<line fill="none" stroke="#ABD4FF" stroke-width="3" stroke-miterlimit="10" x1="429" y1="320.876" x2="517" y2="320.876"/>
	<path fill="#FFFFFF" d="M360.446,411.142l-2.81-25.067l0.392-0.046l3.029,25.041C360.853,411.095,360.649,411.119,360.446,411.142z
		 M340.959,411.089c-0.204-0.024-0.408-0.05-0.612-0.075l3.179-25.023l0.389,0.048L340.959,411.089z M380.093,406.449l-8.832-23.626
		l0.416-0.157l8.946,23.584L380.093,406.449z M321.361,406.294c-0.194-0.073-0.388-0.147-0.582-0.222l9.126-23.515l0.364,0.139
		L321.361,406.294z M397.955,397.209l-14.179-20.861l0.322-0.221l14.366,20.734C398.294,396.977,398.124,397.093,397.955,397.209z
		 M303.506,396.93l-0.49-0.341l14.465-20.664l0.339,0.235L303.506,396.93z M413.107,383.963l-18.733-16.89l0.264-0.297l18.877,16.73
		C413.379,383.659,413.243,383.812,413.107,383.963z M288.421,383.584l-0.377-0.428l18.946-16.652l0.29,0.328L288.421,383.584z
		 M424.68,367.475l-22.227-11.923l0.183-0.345l22.335,11.72C424.874,367.11,424.778,367.293,424.68,367.475z M276.95,367.028
		l-0.264-0.504l22.38-11.634l0.202,0.386L276.95,367.028z M431.981,348.625l-24.466-6.135l0.102-0.411l24.505,5.979L431.981,348.625
		z M269.78,348.2l-0.142-0.586l24.53-5.874l0.096,0.395L269.78,348.2z"/>
	<path fill="none" stroke="#ABD4FF" stroke-miterlimit="10" d="M444.787,320.971c0.13,2.027,0.197,4.071,0.197,6.131
		c0,51.927-42.095,94.022-94.022,94.022s-94.022-42.095-94.022-94.022c0-2.06,0.066-4.104,0.197-6.131"/>
</g>
</svg>
