<?xml version="1.0" encoding="utf-8"?>
<!-- Generator: Adobe Illustrator 17.1.0, SVG Export Plug-In . SVG Version: 6.00 Build 0)  -->
<!DOCTYPE svg PUBLIC "-//W3C//DTD SVG 1.1//EN" "http://www.w3.org/Graphics/SVG/1.1/DTD/svg11.dtd">
<svg version="1.1" id="Layer_1" xmlns="http://www.w3.org/2000/svg" xmlns:xlink="http://www.w3.org/1999/xlink" x="0px" y="0px"
	 viewBox="0 0 45 41" enable-background="new 0 0 45 41" xml:space="preserve">
<g>
	<path fill="#95CF3B" d="M8.332,11.055h2.361v28.336H8.332c-2.602,0-4.723-2.122-4.723-4.723V15.777
		C3.609,13.176,5.73,11.055,8.332,11.055z M31.945,6.332v33.059H13.055V6.332c0-2.601,2.121-4.723,4.723-4.723h9.445
		C29.824,1.609,31.945,3.731,31.945,6.332z M27.223,11.055V6.332h-9.445v4.723H27.223z M41.391,15.777v18.891
		c0,2.601-2.121,4.723-4.723,4.723h-2.361V11.055h2.361C39.27,11.055,41.391,13.176,41.391,15.777z"/>
</g>
</svg>
