<?xml version="1.0" encoding="utf-8"?>
<!-- Generator: Adobe Illustrator 17.1.0, SVG Export Plug-In . SVG Version: 6.00 Build 0)  -->
<!DOCTYPE svg PUBLIC "-//W3C//DTD SVG 1.1//EN" "http://www.w3.org/Graphics/SVG/1.1/DTD/svg11.dtd">
<svg version="1.1" xmlns="http://www.w3.org/2000/svg" xmlns:xlink="http://www.w3.org/1999/xlink" x="0px" y="0px"
	 viewBox="0 0 20 50" enable-background="new 0 0 20 50" xml:space="preserve">
<g id="Layer_2">
</g>
<g id="Layer_1">
	<g>
		<line opacity="0.55" fill="none" stroke="#FFFFFF" stroke-miterlimit="10" x1="18" y1="50" x2="18" y2="0"/>
	</g>
	<g>
		<path fill="#FFFFFF" d="M2.5,42h4v-5h-4V42z M3.5,38h2v3h-2V38z"/>
		<path fill="#FFFFFF" d="M7.5,20h-6v7h6V20z M6.5,26h-4v-5h4V26z"/>
		<path fill="#FFFFFF" d="M14.5,18h-5v9h5V18z M13.5,26h-3v-7h3V26z"/>
		<polygon fill="#FFFFFF" points="8.5,39 8.5,35 5.5,35 5.5,29 9.5,29 9.5,31 14.5,31 14.5,29 15.5,29 15.5,28 13.5,28 13.5,30 
			10.5,30 10.5,28 4.5,28 4.5,36 7.5,36 7.5,40 15.5,40 15.5,39 		"/>
		<polygon fill="#FFFFFF" points="8.5,12 8.5,16 6.5,16 6.5,6 15.5,6 15.5,5 5.5,5 5.5,17 9.5,17 9.5,13 15.5,13 15.5,12 		"/>
		<polygon fill="#FFFFFF" points="11.5,16 11.5,15 15.5,15 15.5,14 10.5,14 10.5,17 15.5,17 15.5,16 		"/>
	</g>
</g>
</svg>
