<?xml version="1.0" encoding="utf-8"?>
<!-- Generator: Adobe Illustrator 17.1.0, SVG Export Plug-In . SVG Version: 6.00 Build 0)  -->
<!DOCTYPE svg PUBLIC "-//W3C//DTD SVG 1.1//EN" "http://www.w3.org/Graphics/SVG/1.1/DTD/svg11.dtd">
<svg version="1.1" id="Layer_1" xmlns="http://www.w3.org/2000/svg" xmlns:xlink="http://www.w3.org/1999/xlink" x="0px" y="0px"
	 viewBox="0 0 45 45" enable-background="new 0 0 45 45" xml:space="preserve">
<g>
	<g>
		<path fill="#95CF3B" d="M7.547,19.766h4.016v7.733C5.261,26.024,0.625,21.176,0.625,14.297V3.359c0-1.517,1.218-2.734,2.734-2.734
			h24.609c1.517,0,2.734,1.218,2.734,2.734v10.938H17.031C13.122,14.318,8.828,16.027,7.547,19.766z M8.828,8.828
			c0,1.517,1.218,2.734,2.734,2.734s2.734-1.218,2.734-2.734s-1.218-2.734-2.734-2.734S8.828,7.312,8.828,8.828z M44.375,19.766
			v10.938c0,8.203-6.729,13.672-15.039,13.672s-15.039-5.362-15.039-13.672V19.766c0-1.517,1.218-2.734,2.734-2.734h24.609
			C43.157,17.031,44.375,18.249,44.375,19.766z M17.031,8.828c0,1.517,1.218,2.734,2.734,2.734S22.5,10.345,22.5,8.828
			s-1.218-2.734-2.734-2.734S17.031,7.312,17.031,8.828z M38.415,33.438H20.727c1.538,3.226,4.807,5.469,8.609,5.469
			C33.245,38.906,37.133,37.176,38.415,33.438z M22.5,25.234c0,1.517,1.218,2.734,2.734,2.734s2.734-1.218,2.734-2.734
			S26.751,22.5,25.234,22.5S22.5,23.718,22.5,25.234z M30.703,25.234c0,1.517,1.218,2.734,2.734,2.734s2.734-1.218,2.734-2.734
			S34.954,22.5,33.438,22.5S30.703,23.718,30.703,25.234z"/>
	</g>
</g>
</svg>
