<?xml version="1.0" encoding="utf-8"?>
<!-- Generator: Adobe Illustrator 17.1.0, SVG Export Plug-In . SVG Version: 6.00 Build 0)  -->
<!DOCTYPE svg PUBLIC "-//W3C//DTD SVG 1.1//EN" "http://www.w3.org/Graphics/SVG/1.1/DTD/svg11.dtd">
<svg version="1.1" id="Layer_1" xmlns="http://www.w3.org/2000/svg" xmlns:xlink="http://www.w3.org/1999/xlink" x="0px" y="0px"
	 viewBox="0 0 368.539 101.97" enable-background="new 0 0 368.539 101.97" xml:space="preserve">
<circle fill="#268BF4" cx="32.63" cy="32.631" r="32.63"/>
<path fill="#FFFFFF" d="M21.702,26.468c0-3.966,1.757-7.351,5.275-10.154c3.517-2.803,7.39-4.205,11.622-4.205
	c1.11,0,2.261,0.079,3.451,0.238s2.194,0.317,3.015,0.476c0.819,0.159,1.956,0.41,3.411,0.754c1.454,0.344,2.604,0.595,3.451,0.753
	c0.581,5.13,0.873,9.52,0.873,13.169c-0.212,0.529-0.609,0.793-1.19,0.793c-1.535,0-2.354-0.185-2.459-0.555
	c-0.371-2.644-1.507-5.169-3.411-7.576c-1.904-2.406-4.258-3.61-7.061-3.61c-1.798,0-3.319,0.556-4.562,1.666
	c-1.243,1.111-1.864,2.883-1.864,5.315c0,1.059,0.264,2.09,0.793,3.094c0.528,1.005,1.414,2.037,2.658,3.094
	c1.242,1.059,2.261,1.852,3.054,2.38c0.793,0.529,2.088,1.376,3.887,2.539c0.476,0.317,0.845,0.556,1.11,0.714
	c0.423,0.265,1.295,0.793,2.618,1.586c1.321,0.793,2.261,1.388,2.816,1.785c0.555,0.396,1.321,1.045,2.3,1.943
	c0.978,0.9,1.692,1.785,2.142,2.658c0.449,0.873,0.859,2.011,1.229,3.411c0.37,1.402,0.555,2.949,0.555,4.641
	c0,4.231-1.745,7.735-5.236,10.511c-3.49,2.776-7.51,4.165-12.058,4.165c-4.179,0-9.203-0.688-15.073-2.063
	c-0.424-1.692-0.833-4.006-1.23-6.941c-0.396-2.935-0.595-5.01-0.595-6.228c0.159-0.528,0.635-0.793,1.428-0.793
	c1.639,0,2.485,0.159,2.539,0.476c0.423,2.433,1.746,4.878,3.967,7.338s4.681,3.689,7.378,3.689c5.236,0,7.854-2.882,7.854-8.647
	c0-0.899-0.238-1.785-0.714-2.658s-1.19-1.732-2.142-2.578c-0.952-0.846-1.798-1.534-2.539-2.063
	c-0.741-0.528-1.785-1.216-3.133-2.062c-1.349-0.845-2.209-1.4-2.579-1.666c-0.265-0.159-0.662-0.422-1.19-0.793
	c-1.745-1.163-3.068-2.089-3.966-2.777c-0.9-0.687-1.944-1.639-3.134-2.856c-1.19-1.216-2.037-2.551-2.539-4.006
	C21.952,29.972,21.702,28.32,21.702,26.468z"/>
<g>
	<path fill="#4D4D4D" d="M79.516,61.813c-5.372,0-7.51-2.816-7.562-8.084V32.971h-3.338v-5.007h3.338V16.281h6.676v11.683h5.007
		v5.007H78.63V52.45c0,2.373,0.365,3.886,2.764,3.886c0.625,0,1.643-0.156,2.243-0.261v5.424
		C81.968,61.708,81.134,61.813,79.516,61.813z"/>
	<path fill="#4D4D4D" d="M97.147,56.336c3.364,0,3.364-3.312,3.364-6.676h6.65c0,7.693-2.764,12.152-10.04,12.152
		c-9.101,0-9.987-8.476-9.987-17.941c0-9.049,1.304-16.376,10.014-16.376c8.709,0,10.014,7.328,10.014,16.376v0.782H93.809v1.669
		C93.809,50.182,93.391,56.336,97.147,56.336z M97.147,32.971c-3.442,0-3.338,4.902-3.338,8.345h6.676
		C100.485,37.847,100.563,32.971,97.147,32.971z"/>
	<path fill="#4D4D4D" d="M124.844,61.813c-3.025,0-5.164-1.878-6.676-3.469v13.013h-6.676V27.964h6.676v3.338
		c1.825-1.93,3.494-3.807,6.78-3.807c8.162,0,8.241,9.753,8.241,18.332v0.496C133.188,53.103,131.519,61.813,124.844,61.813z
		 M126.512,42.724c0-4.172-0.052-10.092-3.938-10.092c-1.825,0-3.181,0.965-4.407,1.695v20.654c1.46,0.859,3.155,1.355,5.007,1.355
		c2.999,0,3.39-4.851,3.39-9.205c0-1.513-0.052-2.973-0.052-4.146V42.724z"/>
	<path fill="#4D4D4D" d="M153.897,27.495c2.947,0,4.798,2.477,4.798,5.398v28.45h-6.676V36.309c0-2.008-0.235-3.338-2.295-3.338
		c-1.877,0-3.286,1.043-4.381,1.956v26.417h-6.676v-46.73h6.676v16.95C147.69,29.424,149.907,27.495,153.897,27.495z"/>
	<path fill="#4D4D4D" d="M173.927,56.336c3.364,0,3.364-3.312,3.364-6.676h6.65c0,7.693-2.764,12.152-10.04,12.152
		c-9.101,0-9.987-8.476-9.987-17.941c0-9.049,1.304-16.376,10.014-16.376c8.709,0,10.014,7.328,10.014,16.376v0.782h-13.352v1.669
		C170.589,50.182,170.172,56.336,173.927,56.336z M173.927,32.971c-3.442,0-3.338,4.902-3.338,8.345h6.676
		C177.265,37.847,177.343,32.971,173.927,32.971z"/>
	<path fill="#4D4D4D" d="M203.502,27.495c2.946,0,4.798,2.477,4.798,5.398v28.45h-6.676V36.309c0-2.112-0.339-3.338-2.503-3.338
		c-1.878,0-3.078,1.043-4.173,1.956v26.417h-6.676V27.964h6.676v3.599C197.295,29.424,199.511,27.495,203.502,27.495z"/>
	<path fill="#4D4D4D" d="M242.752,44.653v-1.669h-6.676V38.03h13.352v23.313h-5.007l-1.669-5.007
		c-0.99,2.764-2.895,5.477-6.676,5.477c-10.9,0-13.352-7.667-13.352-18.672V31.302c0-10.04,3.573-17.159,13.612-17.159
		c9.336,0,12.7,6.102,12.7,15.49h-6.676c0-5.685-0.443-10.014-6.024-10.014c-5.58,0-6.937,4.329-6.937,10.014v15.021
		c0,6.154,0.913,11.683,6.676,11.683C241.813,56.336,242.752,50.755,242.752,44.653z"/>
	<path fill="#4D4D4D" d="M272.953,37.978v15.021c0,3.416,0.209,5.972,0.86,8.345h-6.649l-0.887-5.007
		c-1.33,2.634-2.816,5.477-6.676,5.477s-6.676-3.964-6.676-7.85c0-8.684,6.91-11.057,13.352-13.586v-2.399
		c0-2.947-0.548-5.32-3.338-5.32c-2.738,0-3.338,2.399-3.338,5.32h-6.676c0.078-6.311,3.677-10.483,10.014-10.483
		S272.953,31.771,272.953,37.978z M259.601,52.19c0,2.504,0.938,4.146,3.338,4.146c1.617,0,2.634-1.513,3.338-2.451v-9.231
		C263.643,46.427,259.601,48.148,259.601,52.19z"/>
	<path fill="#4D4D4D" d="M278.719,61.343v-46.73h6.676v46.73H278.719z"/>
	<path fill="#4D4D4D" d="M291.68,61.343v-46.73h6.676v46.73H291.68z"/>
	<path fill="#4D4D4D" d="M322.923,37.978v15.021c0,3.416,0.209,5.972,0.86,8.345h-6.649l-0.887-5.007
		c-1.33,2.634-2.816,5.477-6.676,5.477s-6.676-3.964-6.676-7.85c0-8.684,6.91-11.057,13.352-13.586v-2.399
		c0-2.947-0.548-5.32-3.338-5.32c-2.738,0-3.338,2.399-3.338,5.32h-6.676c0.078-6.311,3.677-10.483,10.014-10.483
		S322.923,31.771,322.923,37.978z M309.571,52.19c0,2.504,0.938,4.146,3.338,4.146c1.617,0,2.634-1.513,3.338-2.451v-9.231
		C313.613,46.427,309.571,48.148,309.571,52.19z"/>
	<path fill="#4D4D4D" d="M343.787,27.495c2.947,0,4.799,2.477,4.799,5.398v28.45h-6.676V36.309c0-2.112-0.34-3.338-2.504-3.338
		c-1.878,0-3.077,1.043-4.172,1.956v26.417h-6.676V27.964h6.676v3.599C337.581,29.424,339.798,27.495,343.787,27.495z"/>
	<path fill="#4D4D4D" d="M363.347,61.813c-5.371,0-7.51-2.816-7.562-8.084V32.971h-3.338v-5.007h3.338V16.281h6.676v11.683h5.007
		v5.007h-5.007V52.45c0,2.373,0.364,3.886,2.764,3.886c0.626,0,1.643-0.156,2.243-0.261v5.424
		C365.8,61.708,364.965,61.813,363.347,61.813z"/>
</g>
<g>
	<path fill="#268BF4" d="M231.199,68.731c-2.278,0-2.859,2.441-2.859,4.766v0.953h-3.812v-0.953c0-4.781,1.892-7.894,6.672-7.894
		c4.394,0,6.672,2.606,6.672,6.94c0,3.455-1.385,5.525-2.859,7.625l-6.672,8.578h9.531v3.812h-13.358v-3.812l6.687-9.531
		c1.415-2.012,2.859-3.693,2.859-6.672C234.058,70.576,233.165,68.731,231.199,68.731z"/>
	<path fill="#268BF4" d="M246.433,92.559h-5.882V65.871h5.912c5.585,0,7.625,2.025,7.625,7.625v10.484
		C254.089,89.654,252.123,92.559,246.433,92.559z M246.389,68.731h-2.025v20.969h2.1c4.036,0,3.812-2.74,3.812-6.672v-8.578
		C250.276,70.801,250.172,68.731,246.389,68.731z"/>
	<path fill="#268BF4" d="M264.646,92.559h-3.812l5.719-26.688h3.812l5.719,26.688h-3.812l-1.43-6.672h-4.766L264.646,92.559z
		 M268.459,71.59l-1.906,11.438h3.812L268.459,71.59z"/>
	<path fill="#268BF4" d="M286.628,73.228c1.683,0,2.74,1.415,2.74,3.083v16.248h-3.812V78.262c0-1.207-0.193-1.906-1.43-1.906
		c-1.072,0-1.758,0.596-2.383,1.117v15.086h-3.812V73.496h3.812v2.055C283.083,74.33,284.349,73.228,286.628,73.228z"/>
	<path fill="#268BF4" d="M296.679,66.824v3.812h-3.812v-3.812H296.679z M296.679,73.496v19.062h-3.812V73.496H296.679z"/>
	<path fill="#268BF4" d="M311.765,77.636v14.923h-3.812V78.723c0-1.087,0.104-2.367-0.953-2.367c-1.221,0-2.174,0.641-2.859,1.205
		v14.998h-3.812V73.496h3.812v2.158c1.028-1.221,2.502-2.427,4.751-2.427c1.892,0,2.592,0.849,2.874,2.517
		c1.117-1.459,2.398-2.517,4.766-2.517c2.935,0,2.859,2.532,2.859,5.466v13.865h-3.812v-13.91c0-1.057,0.09-2.293-0.953-2.293
		C313.374,76.356,312.466,77.07,311.765,77.636z"/>
	<path fill="#268BF4" d="M333.24,79.215v8.578c0,1.951,0.119,3.41,0.491,4.766h-3.798l-0.506-2.859
		c-0.76,1.504-1.608,3.127-3.812,3.127s-3.812-2.264-3.812-4.482c0-4.959,3.946-6.314,7.625-7.76v-1.369
		c0-1.684-0.312-3.039-1.906-3.039c-1.563,0-1.906,1.371-1.906,3.039h-3.812c0.045-3.604,2.1-5.987,5.719-5.987
		S333.24,75.67,333.24,79.215z M325.615,87.33c0,1.43,0.536,2.369,1.906,2.369c0.923,0,1.504-0.864,1.906-1.4v-5.271
		C327.924,84.039,325.615,85.023,325.615,87.33z"/>
	<path fill="#268BF4" d="M340.537,92.826c-3.067,0-4.289-1.608-4.318-4.617V76.356h-1.906v-2.859h1.906v-6.672h3.812v6.672h2.859
		v2.859h-2.859v11.125c0,1.354,0.208,2.219,1.578,2.219c0.357,0,0.938-0.09,1.281-0.149v3.098
		C341.937,92.767,341.461,92.826,340.537,92.826z"/>
	<path fill="#268BF4" d="M344.885,85.887v-5.719c0-4.23,1.43-6.94,5.719-6.94s5.719,2.71,5.719,6.94v5.719
		c0,4.229-1.43,6.939-5.719,6.939S344.885,90.115,344.885,85.887z M348.698,80.168v5.719c0,1.906,0,3.812,1.906,3.812
		s1.906-1.906,1.906-3.812v-5.719c0-1.906,0-3.812-1.906-3.812S348.698,78.262,348.698,80.168z"/>
	<path fill="#268BF4" d="M367.418,73.228c0.193,0,0.327,0.03,0.61,0.06v4.215c-0.566-0.224-1.37-0.418-2.115-0.418
		c-1.578,0-2.65,1.028-2.65,2.607v12.867h-3.812V73.496h3.812v2.547C363.947,74.717,365.452,73.228,367.418,73.228z"/>
</g>
</svg>
